<svg width="18" height="25" viewBox="0 0 18 25" fill="none" xmlns="http://www.w3.org/2000/svg">
<g clip-path="url(#clip0_20_471)">
<path d="M-6.10352e-05 20.1565L0.149178 19.9448L7.20889 6.37549L7.2238 6.23184L4.11173 0.310407C3.851 -0.18562 3.11698 -0.0602069 3.03142 0.495057L-6.10352e-05 20.1565Z" fill="#FFC24A"/>
<path d="M0.0880127 19.9952L0.200907 19.7722L7.18665 6.34505L4.08237 0.399528C3.82437 -0.0913021 3.1692 0.0338205 3.08453 0.583266L0.0880127 19.9952Z" fill="#FFA712"/>
<g filter="url(#filter0_i_20_471)">
<path d="M0.0880127 19.9952L0.200907 19.7722L7.18665 6.34505L4.08237 0.399528C3.82437 -0.0913021 3.1692 0.0338205 3.08453 0.583266L0.0880127 19.9952Z" fill="#FFC24A"/>
</g>
<path d="M9.49248 10.7107L11.8096 8.30673L9.4918 3.82452C9.27177 3.40025 8.65743 3.39903 8.43973 3.82452L7.20142 6.21689V6.42064L9.49248 10.7107Z" fill="#F4BD62"/>
<path d="M9.45115 10.6106L11.7039 8.27355L9.45115 3.92832C9.23724 3.51584 8.71757 3.47263 8.50592 3.88629L7.26103 6.31572L7.22382 6.43992L9.45115 10.6106Z" fill="#FFA50E"/>
<g filter="url(#filter1_i_20_471)">
<path d="M9.45115 10.6106L11.7039 8.27355L9.45115 3.92832C9.23724 3.51584 8.71757 3.47263 8.50592 3.88629L7.26103 6.31572L7.22382 6.43992L9.45115 10.6106Z" fill="#FFC24A"/>
</g>
<path d="M-6.10352e-05 20.1566L0.0675864 20.0877L0.313372 19.9865L9.34695 10.8697L9.4614 10.5541L7.20789 6.2041L-6.10352e-05 20.1566Z" fill="#F6820C"/>
<path d="M9.78186 24.7545L17.9574 20.1357L15.6228 5.57056C15.5497 5.11485 14.9978 4.93469 14.6758 5.26145L-6.10352e-05 20.1566L8.12864 24.754C8.64236 25.0446 9.26801 25.0447 9.78186 24.7545Z" fill="#FDE068"/>
<path d="M17.8842 20.0969L15.5672 5.6423C15.4948 5.19006 15.0358 5.00291 14.7163 5.32719L0.0905762 20.1283L8.12999 24.6802C8.63981 24.9685 9.26072 24.9686 9.77067 24.6806L17.8842 20.0969Z" fill="#FCCA3F"/>
<path d="M9.78186 24.6182C9.26801 24.9085 8.64236 24.9084 8.12864 24.6178L0.0654109 20.0864L-6.10352e-05 20.1565L8.12864 24.7539C8.64236 25.0444 9.26801 25.0446 9.78186 24.7543L17.9574 20.1355L17.9374 20.0107L9.78186 24.6182Z" fill="#EEAB37"/>
</g>
<defs>
<filter id="filter0_i_20_471" x="0.0880127" y="0.0927734" width="7.09863" height="19.9023" filterUnits="userSpaceOnUse" color-interpolation-filters="sRGB">
<feFlood flood-opacity="0" result="BackgroundImageFix"/>
<feBlend mode="normal" in="SourceGraphic" in2="BackgroundImageFix" result="shape"/>
<feColorMatrix in="SourceAlpha" type="matrix" values="0 0 0 0 0 0 0 0 0 0 0 0 0 0 0 0 0 0 127 0" result="hardAlpha"/>
<feOffset/>
<feGaussianBlur stdDeviation="17.5"/>
<feComposite in2="hardAlpha" operator="arithmetic" k2="-1" k3="1"/>
<feColorMatrix type="matrix" values="0 0 0 0 0 0 0 0 0 0 0 0 0 0 0 0 0 0 0.06 0"/>
<feBlend mode="normal" in2="shape" result="effect1_innerShadow_20_471"/>
</filter>
<filter id="filter1_i_20_471" x="7.22382" y="-3.40332" width="5.48004" height="14.0137" filterUnits="userSpaceOnUse" color-interpolation-filters="sRGB">
<feFlood flood-opacity="0" result="BackgroundImageFix"/>
<feBlend mode="normal" in="SourceGraphic" in2="BackgroundImageFix" result="shape"/>
<feColorMatrix in="SourceAlpha" type="matrix" values="0 0 0 0 0 0 0 0 0 0 0 0 0 0 0 0 0 0 127 0" result="hardAlpha"/>
<feOffset dx="1" dy="-9"/>
<feGaussianBlur stdDeviation="3.5"/>
<feComposite in2="hardAlpha" operator="arithmetic" k2="-1" k3="1"/>
<feColorMatrix type="matrix" values="0 0 0 0 0 0 0 0 0 0 0 0 0 0 0 0 0 0 0.09 0"/>
<feBlend mode="normal" in2="shape" result="effect1_innerShadow_20_471"/>
</filter>
<clipPath id="clip0_20_471">
<rect width="18" height="25" fill="white"/>
</clipPath>
</defs>
</svg>
