<svg width="29" height="29" viewBox="0 0 29 29" fill="none" xmlns="http://www.w3.org/2000/svg">
<path d="M24.7708 3.02051H4.22913L6.04163 23.5622L14.5 25.9788L22.9583 23.5622L24.7708 3.02051Z" fill="#0277BD"/>
<path d="M14.4999 4.83301V24.1059L21.2666 22.1726L22.777 4.83301H14.4999Z" fill="#039BE5"/>
<path d="M19.9979 7.85449H14.4999V10.2712H17.4604L17.2791 12.6878H14.4999V15.1045H17.1583L16.977 17.8232L14.4999 18.6691V21.2066L19.2729 19.6357L19.6958 12.6878L19.9979 7.85449Z" fill="white"/>
<path d="M14.4999 7.85449V10.2712H9.12284L8.94159 7.85449H14.4999ZM11.7208 12.6878L11.8416 15.1045H14.4999V12.6878H11.7208ZM11.9624 16.3128H9.54576L9.72701 19.6357L14.4999 21.2066V18.6691L12.0228 17.8232L11.9624 16.3128Z" fill="#EEEEEE"/>
</svg>
