<svg width="26" height="14" viewBox="0 0 26 14" fill="none" xmlns="http://www.w3.org/2000/svg">
<g clip-path="url(#clip0_20_464)">
<path d="M7.92851 9.25895C9.23032 9.25895 10.2857 8.21985 10.2857 6.93807C10.2857 5.65628 9.23032 4.61719 7.92851 4.61719C6.6267 4.61719 5.57137 5.65628 5.57137 6.93807C5.57137 8.21985 6.6267 9.25895 7.92851 9.25895ZM2.35708 13.9007C3.6589 13.9007 4.71422 12.8616 4.71422 11.5798C4.71422 10.298 3.6589 9.25895 2.35708 9.25895C1.05527 9.25895 -6.10352e-05 10.298 -6.10352e-05 11.5798C-6.10352e-05 12.8616 1.05527 13.9007 2.35708 13.9007ZM23.6428 13.9007C24.9446 13.9007 25.9999 12.8616 25.9999 11.5798C25.9999 10.298 24.9446 9.25895 23.6428 9.25895C22.341 9.25895 21.2857 10.298 21.2857 11.5798C21.2857 12.8616 22.341 13.9007 23.6428 13.9007Z" fill="white"/>
<path d="M15.9011 7.03568C15.8258 6.26028 15.7874 5.6149 15.1841 5.16132C14.4201 4.58687 13.5546 4.9596 12.4885 4.58073C11.441 4.33121 10.664 3.41546 10.664 2.32394C10.664 1.04046 11.7383 0 13.0636 0C14.0451 0 14.889 0.570748 15.2607 1.38825C15.8296 2.45221 15.4598 3.535 16.1746 4.08041C17.0209 4.72622 18.162 4.25329 19.4352 4.86517C19.8442 5.05027 20.1905 5.34385 20.4345 5.70769C20.6785 6.07154 20.8203 6.50565 20.8203 6.97183C20.8203 8.06334 20.0433 8.9791 18.9957 9.22862C17.9297 9.60749 17.0642 9.23476 16.3002 9.8092C15.441 10.4552 15.901 11.5359 15.2007 12.6774C14.8033 13.4292 13.9955 13.9437 13.0636 13.9437C11.7383 13.9437 10.664 12.9032 10.664 11.6197C10.664 10.6874 11.2309 9.88325 12.0491 9.51306C13.3223 8.90118 14.4633 9.37411 15.3096 8.7283C15.7979 8.35574 15.9011 7.78103 15.9011 7.03568Z" fill="#D0021B"/>
</g>
<defs>
<clipPath id="clip0_20_464">
<rect width="26" height="14" fill="white"/>
</clipPath>
</defs>
</svg>
