<svg width="24" height="24" viewBox="0 0 24 24" fill="none" xmlns="http://www.w3.org/2000/svg">
<path d="M24 12C24 5.37258 18.6274 0 12 0C5.37258 0 0 5.37258 0 12C0 18.6274 5.37258 24 12 24C18.6274 24 24 18.6274 24 12Z" fill="url(#paint0_linear_24_74)"/>
<path d="M6.49571 12.5125L14.6755 4.38898C14.8283 4.23723 15.0742 4.42193 14.9711 4.61096L11.9266 10.1909C11.8587 10.3154 11.9488 10.4671 12.0906 10.4671H17.3518C17.5213 10.4671 17.6032 10.6748 17.4792 10.7904L8.2595 19.3952C8.09418 19.5494 7.84812 19.3321 7.98087 19.149L12.3453 13.1282C12.4348 13.0047 12.3466 12.8318 12.1941 12.8318H6.62734C6.46062 12.8318 6.37744 12.63 6.49571 12.5125Z" fill="white"/>
<defs>
<linearGradient id="paint0_linear_24_74" x1="12" y1="0" x2="12" y2="24" gradientUnits="userSpaceOnUse">
<stop stop-color="#7BCBD4"/>
<stop offset="1" stop-color="#29C6B7"/>
</linearGradient>
</defs>
</svg>
