<svg width="26" height="14" viewBox="0 0 26 14" fill="none" xmlns="http://www.w3.org/2000/svg">
<path d="M7.92857 9.25895C9.23039 9.25895 10.2857 8.21985 10.2857 6.93807C10.2857 5.65628 9.23039 4.61719 7.92857 4.61719C6.62676 4.61719 5.57143 5.65628 5.57143 6.93807C5.57143 8.21985 6.62676 9.25895 7.92857 9.25895ZM2.35714 13.9007C3.65896 13.9007 4.71429 12.8616 4.71429 11.5798C4.71429 10.298 3.65896 9.25895 2.35714 9.25895C1.05533 9.25895 0 10.298 0 11.5798C0 12.8616 1.05533 13.9007 2.35714 13.9007ZM23.6429 13.9007C24.9447 13.9007 26 12.8616 26 11.5798C26 10.298 24.9447 9.25895 23.6429 9.25895C22.341 9.25895 21.2857 10.298 21.2857 11.5798C21.2857 12.8616 22.341 13.9007 23.6429 13.9007Z" fill="white"/>
<path d="M15.9012 7.03568C15.8258 6.26028 15.7874 5.6149 15.1842 5.16132C14.4201 4.58687 13.5546 4.9596 12.4886 4.58073C11.441 4.33121 10.6641 3.41546 10.6641 2.32394C10.6641 1.04046 11.7384 0 13.0636 0C14.0451 0 14.889 0.570748 15.2607 1.38825C15.8296 2.45221 15.4599 3.535 16.1747 4.08041C17.021 4.72622 18.162 4.25329 19.4352 4.86517C19.8443 5.05027 20.1906 5.34385 20.4346 5.70769C20.6786 6.07154 20.8203 6.50565 20.8203 6.97183C20.8203 8.06334 20.0433 8.9791 18.9958 9.22862C17.9297 9.60749 17.0643 9.23476 16.3002 9.8092C15.4411 10.4552 15.901 11.5359 15.2008 12.6774C14.8034 13.4292 13.9955 13.9437 13.0636 13.9437C11.7384 13.9437 10.6641 12.9032 10.6641 11.6197C10.6641 10.6874 11.231 9.88325 12.0492 9.51306C13.3223 8.90118 14.4634 9.37411 15.3097 8.7283C15.798 8.35574 15.9012 7.78103 15.9012 7.03568Z" fill="#D0021B"/>
</svg>
