<svg width="24" height="23" viewBox="0 0 24 23" fill="none" xmlns="http://www.w3.org/2000/svg">
<g clip-path="url(#clip0_24_72)">
<path d="M16.6295 15.9991C17.5152 15.907 18.1871 15.1393 18.1565 14.2181C18.126 13.2969 17.3624 12.56 16.4462 12.56H16.3852C15.4383 12.5907 14.7054 13.389 14.7359 14.3409C14.7665 14.8015 14.9497 15.2007 15.2246 15.4771C14.1862 17.5345 12.5981 19.039 10.2159 20.298C8.59717 21.1578 6.91745 21.4649 5.23773 21.25C3.86335 21.0657 2.79441 20.4516 2.12241 19.4382C1.14516 17.9336 1.05356 16.3061 1.87819 14.6787C2.4585 13.5118 3.37463 12.6521 3.95494 12.2222C3.83279 11.823 3.64951 11.1475 3.55791 10.6562C-0.870565 13.8804 -0.412408 18.2407 0.931407 20.298C1.93922 21.8334 3.98551 22.7853 6.24554 22.7853C6.85632 22.7853 7.46711 22.7238 8.07798 22.5704C11.9873 21.8027 14.9498 19.4689 16.6295 15.9991ZM22.0048 12.1915C19.6836 9.4586 16.263 7.95401 12.3537 7.95401H11.8651C11.5902 7.4013 11.0099 7.03277 10.3686 7.03277H10.3075C9.36077 7.06349 8.62783 7.86183 8.6583 8.81381C8.68886 9.73496 9.45236 10.4719 10.3686 10.4719H10.4296C11.1015 10.4412 11.6818 10.0113 11.9261 9.42788H12.4759C14.7971 9.42788 16.996 10.1034 18.9812 11.4238C20.5082 12.4372 21.6077 13.7576 22.2185 15.3542C22.7377 16.6439 22.7071 17.9029 22.1574 18.9777C21.3023 20.6051 19.8669 21.4956 17.9733 21.4956C16.7517 21.4956 15.5911 21.1271 14.9802 20.8507C14.6443 21.1578 14.0335 21.6491 13.6059 21.9562C14.9192 22.5703 16.263 22.9081 17.5457 22.9081C20.4777 22.9081 22.6461 21.2806 23.4707 19.6532C24.3564 17.8722 24.2953 14.8015 22.0048 12.1915ZM6.48985 16.521C6.52042 17.4423 7.28392 18.1792 8.20014 18.1792H8.26126C9.20805 18.1485 9.94099 17.3501 9.91042 16.3982C9.87995 15.477 9.11636 14.7401 8.20014 14.7401H8.13911C8.07798 14.7401 7.9863 14.7401 7.92536 14.7707C6.67314 12.6827 6.15395 10.4105 6.33723 7.95392C6.45929 6.11152 7.07017 4.51475 8.13911 3.19433C9.02477 2.05818 10.7351 1.50547 11.8957 1.47484C15.133 1.41339 16.5072 5.46663 16.5989 7.09413C16.996 7.18621 17.6679 7.40121 18.126 7.55475C17.7595 2.58036 14.7054 0.000976562 11.7735 0.000976562C9.02477 0.000976562 6.48985 1.99692 5.48195 4.94474C4.0771 8.87517 4.99332 12.6521 6.7036 15.6306C6.55098 15.8455 6.45929 16.1833 6.48985 16.5211V16.521Z" fill="#C780FF"/>
</g>
<defs>
<clipPath id="clip0_24_72">
<rect width="24" height="23" fill="white"/>
</clipPath>
</defs>
</svg>
