<?xml version="1.0" standalone="no"?>
<!DOCTYPE svg PUBLIC "-//W3C//DTD SVG 20010904//EN"
 "http://www.w3.org/TR/2001/REC-SVG-20010904/DTD/svg10.dtd">
<svg version="1.0" xmlns="http://www.w3.org/2000/svg"
 width="1028.000000pt" height="1028.000000pt" viewBox="0 0 1028.000000 1028.000000"
 preserveAspectRatio="xMidYMid meet">
<metadata>
Created by potrace 1.14, written by Peter Selinger 2001-2017
</metadata>
<g transform="translate(0.000000,1028.000000) scale(0.100000,-0.100000)"
fill="#000000" stroke="none">
<path d="M635 8600 c-81 -40 -116 -141 -76 -222 18 -38 39 -55 163 -133 333
-211 306 -189 302 -241 -1 -21 -6 -86 -9 -144 -4 -58 -8 -125 -10 -150 -2 -25
-7 -92 -11 -150 -3 -58 -8 -121 -9 -140 -2 -19 -6 -84 -9 -145 -4 -60 -9 -131
-12 -157 -2 -26 -6 -89 -9 -140 -3 -51 -7 -118 -10 -148 -2 -30 -7 -100 -10
-155 -4 -55 -9 -122 -11 -150 -7 -78 -13 -162 -19 -265 -3 -52 -7 -115 -10
-140 -2 -25 -7 -83 -10 -130 -6 -90 -11 -157 -20 -280 -4 -41 -8 -104 -10
-140 -3 -36 -7 -99 -10 -140 -4 -41 -8 -100 -10 -130 -2 -30 -6 -89 -10 -130
-3 -41 -8 -105 -10 -142 -3 -38 -7 -98 -10 -135 -3 -38 -7 -97 -10 -133 -3
-36 -7 -92 -10 -125 -6 -71 -13 -162 -20 -265 -12 -161 -15 -207 -20 -265 -3
-33 -7 -87 -10 -120 -3 -33 -7 -94 -11 -135 -3 -41 -8 -97 -9 -125 -2 -27 -7
-86 -11 -130 -10 -116 -8 -152 13 -188 36 -62 149 -90 209 -51 13 9 24 13 24
9 0 -9 21 14 48 51 12 18 24 53 26 80 7 73 15 169 21 259 4 44 8 100 10 125 2
25 7 86 10 135 3 50 8 110 10 135 6 53 12 136 20 238 3 39 7 103 10 142 3 38
8 98 10 132 6 84 14 192 19 253 5 52 13 156 22 285 5 74 12 171 18 260 2 25 7
90 11 145 4 55 9 120 11 145 4 49 12 156 19 265 3 39 7 97 9 130 3 33 8 103
11 155 4 52 8 115 10 140 2 25 6 83 9 130 11 158 16 215 21 295 4 44 8 107 10
140 2 33 6 98 10 145 3 47 8 121 10 165 3 44 8 105 10 135 2 30 7 93 10 140
12 184 16 245 20 248 2 2 81 -49 177 -114 95 -65 214 -145 263 -178 50 -34 96
-67 103 -74 8 -6 23 -17 35 -23 11 -7 26 -16 31 -21 6 -5 88 -64 182 -131 269
-191 297 -212 504 -367 316 -237 442 -334 469 -358 l26 -24 -26 -21 c-14 -12
-46 -38 -69 -57 -24 -19 -54 -46 -67 -60 -69 -74 -21 -198 92 -239 47 -16 54
-16 97 -2 26 9 62 28 80 43 18 15 43 35 56 45 12 10 39 33 60 50 20 18 40 33
43 33 3 0 19 -12 35 -26 70 -61 116 -87 164 -90 111 -6 205 89 186 189 -6 34
-31 65 -84 107 -18 14 -32 28 -32 32 0 3 42 39 92 80 51 40 98 77 104 83 6 5
28 24 49 40 36 28 139 114 227 189 20 17 57 48 82 69 25 21 71 62 103 92 32
29 60 52 63 50 3 -2 3 -47 0 -102 -3 -54 -5 -335 -5 -625 0 -291 -4 -528 -8
-528 -5 0 -5 -5 -2 -10 4 -6 8 -155 10 -333 6 -482 20 -944 40 -1367 10 -223
17 -352 20 -405 2 -33 7 -107 10 -164 3 -57 8 -140 11 -185 3 -44 7 -106 9
-136 5 -108 32 -161 99 -191 70 -32 135 -24 189 23 49 43 49 46 23 443 -7 106
-17 277 -22 370 -18 392 -25 564 -41 1035 -6 196 -12 2082 -6 2093 2 4 6 98 9
210 6 282 10 342 19 357 15 24 40 165 39 220 -3 123 -47 264 -95 305 -17 14
-36 25 -42 26 -7 0 -21 2 -32 4 -53 10 -156 -50 -177 -104 -14 -36 -15 -53
-23 -251 -6 -163 -8 -178 -32 -219 -47 -80 -270 -288 -448 -416 -16 -11 -34
-26 -41 -32 -7 -7 -15 -13 -18 -13 -3 0 -14 -8 -24 -17 -10 -10 -38 -34 -63
-54 -81 -67 -304 -251 -344 -285 -46 -39 -54 -41 -81 -16 -10 9 -46 37 -79 62
-33 25 -69 53 -80 62 -11 9 -65 51 -120 92 -55 42 -115 88 -134 103 -19 16
-39 30 -45 32 -6 2 -13 7 -16 11 -3 3 -41 33 -85 66 -44 32 -81 62 -83 67 -2
4 -9 7 -16 7 -7 0 -20 8 -29 18 -9 9 -55 44 -102 77 -47 33 -101 72 -118 87
-18 15 -40 30 -49 34 -10 3 -18 10 -18 15 0 5 -4 9 -10 9 -5 0 -29 15 -53 33
-56 42 -73 54 -192 136 -55 39 -104 73 -110 78 -5 5 -53 37 -105 72 -52 36
-118 82 -147 103 -29 21 -56 38 -60 38 -4 0 -24 13 -43 30 -19 16 -47 35 -62
41 -16 6 -28 15 -28 20 0 5 -5 9 -11 9 -6 0 -21 8 -34 18 -12 9 -31 23 -41 29
-90 60 -129 92 -126 104 4 13 4 94 0 132 -3 32 -72 85 -123 92 -49 8 -122 -13
-145 -41 -14 -16 -40 -19 -40 -4 0 6 -5 10 -10 10 -6 0 -33 16 -60 35 -27 19
-51 34 -52 33 -2 -1 -35 19 -74 45 -123 81 -161 91 -229 57z"/>
<path d="M6130 7952 c-86 -29 -103 -72 -95 -239 3 -65 7 -163 10 -218 2 -55 7
-140 9 -190 3 -49 8 -137 11 -195 3 -58 8 -141 11 -185 2 -44 7 -118 9 -165 3
-47 7 -114 9 -150 3 -36 7 -105 11 -155 3 -49 7 -121 10 -160 3 -38 7 -108 10
-155 3 -47 8 -110 11 -140 3 -30 7 -82 9 -115 3 -33 7 -96 10 -140 3 -44 8
-105 10 -135 2 -30 7 -91 11 -135 3 -44 8 -98 10 -120 7 -91 13 -174 19 -230
3 -33 8 -82 10 -110 3 -27 7 -79 11 -115 3 -36 8 -87 9 -115 2 -27 6 -70 9
-95 3 -25 8 -72 10 -105 3 -33 8 -86 11 -118 3 -32 8 -81 10 -110 3 -29 7 -70
10 -92 2 -22 7 -66 9 -98 3 -31 8 -81 11 -110 3 -28 8 -73 10 -99 3 -27 7 -67
10 -90 2 -24 7 -63 9 -88 7 -72 17 -163 21 -196 2 -17 7 -57 10 -90 3 -32 8
-75 11 -94 3 -19 7 -57 10 -85 5 -54 13 -122 19 -170 2 -16 6 -59 10 -94 11
-126 70 -198 167 -206 65 -5 95 4 133 42 l34 34 -4 87 c-2 48 -6 98 -9 112 -2
14 -7 52 -11 85 -4 33 -8 74 -10 90 -3 17 -7 59 -10 95 -11 107 -11 113 -31
280 -3 30 -8 69 -9 85 -2 17 -6 57 -9 90 -4 33 -9 80 -11 105 -2 25 -6 65 -9
90 -6 52 -14 128 -21 220 -3 36 -8 81 -11 100 -2 19 -7 62 -9 95 -3 33 -7 78
-9 100 -8 68 -18 179 -31 345 -3 36 -7 81 -10 100 -2 19 -7 69 -10 110 -3 41
-8 99 -11 128 -2 30 -7 84 -9 120 -3 37 -7 88 -9 113 -2 25 -7 81 -10 125 -4
43 -9 106 -12 139 -2 33 -7 94 -9 135 -3 41 -8 102 -10 135 -3 33 -7 101 -10
150 -2 50 -5 90 -5 90 -2 0 -19 235 -25 345 -3 47 -7 123 -11 170 -3 47 -7
117 -9 155 -2 39 -6 108 -9 155 -3 47 -8 132 -11 190 -3 58 -7 129 -8 158 -2
28 -1 52 2 52 4 0 24 -15 46 -32 22 -18 45 -36 50 -41 6 -4 24 -19 40 -33 17
-14 46 -37 65 -52 19 -14 42 -33 51 -42 9 -8 38 -33 64 -55 26 -22 53 -44 59
-50 6 -5 38 -32 71 -60 32 -27 68 -59 80 -70 11 -11 54 -49 95 -85 152 -133
758 -747 845 -858 11 -14 29 -35 40 -46 28 -30 81 -92 135 -156 25 -29 50 -58
55 -64 6 -6 28 -34 50 -61 21 -28 42 -52 45 -55 3 -3 19 -23 36 -45 34 -47 55
-73 70 -89 17 -19 279 -369 300 -401 10 -16 26 -38 34 -47 61 -68 319 -527
320 -568 0 -9 4 -20 9 -25 10 -11 57 -162 65 -210 3 -16 10 -52 15 -80 10 -49
8 -222 -2 -280 -43 -235 -215 -454 -452 -572 -85 -43 -312 -117 -342 -112 -5
1 -10 0 -13 -1 -9 -3 -44 -9 -95 -16 -27 -3 -61 -8 -75 -11 -14 -2 -178 -5
-365 -7 -250 -2 -347 -6 -366 -16 -66 -31 -95 -125 -65 -204 21 -55 55 -86
109 -100 46 -12 505 -13 632 -2 96 8 235 25 268 32 35 8 63 14 92 19 46 9 166
45 200 60 17 7 41 16 55 20 57 17 255 127 310 172 100 81 122 102 195 184 37
42 93 127 127 194 114 221 139 469 82 790 -6 36 -64 239 -74 260 -5 11 -21 49
-36 85 -28 70 -129 275 -160 327 -50 82 -89 149 -94 158 -17 33 -227 333 -277
395 -7 8 -52 65 -100 126 -49 61 -95 118 -103 127 -8 9 -20 22 -25 29 -25 32
-215 250 -279 322 -39 43 -75 84 -81 90 -201 226 -511 546 -690 712 -22 20
-72 66 -111 103 -38 36 -98 91 -133 121 -64 56 -91 80 -146 129 -16 15 -69 59
-116 99 -72 60 -86 77 -87 102 -2 75 -52 136 -127 156 -5 1 -48 16 -95 34
-133 49 -142 52 -187 51 -34 -1 -43 2 -43 16 0 27 -42 82 -75 97 -62 29 -98
34 -145 18z"/>
<path d="M1665 2441 c-2 -1 -133 -5 -292 -7 -272 -3 -443 -7 -873 -19 -359
-10 -400 -13 -432 -32 -85 -50 -89 -188 -7 -237 31 -19 55 -19 614 -1 545 17
2491 28 2597 15 27 -4 51 -3 54 2 3 5 10 6 15 3 5 -4 114 -8 242 -11 375 -7
882 -21 1057 -30 52 -3 101 -5 108 -4 6 0 18 0 25 0 6 1 57 -1 112 -4 55 -3
153 -8 217 -11 365 -16 409 -18 598 -30 52 -3 131 -8 175 -10 81 -4 227 -12
345 -21 111 -8 191 -13 285 -19 50 -3 115 -8 145 -11 30 -3 87 -7 125 -9 91
-6 195 -13 270 -20 64 -6 104 -9 365 -30 36 -2 85 -7 110 -9 25 -2 83 -7 130
-11 47 -3 96 -8 110 -11 14 -2 57 -6 95 -9 39 -3 88 -7 110 -10 22 -2 67 -7
100 -10 63 -5 160 -15 210 -20 17 -1 64 -6 105 -9 41 -4 86 -9 100 -11 14 -3
52 -7 85 -10 66 -6 116 -11 187 -19 26 -3 73 -9 105 -12 32 -3 74 -7 93 -9 19
-3 60 -7 90 -10 30 -3 73 -8 95 -10 22 -2 40 -4 40 -5 0 -1 18 -3 40 -5 22 -2
56 -6 76 -9 31 -5 101 -13 179 -21 28 -3 116 -14 170 -21 19 -3 53 -7 75 -9
22 -2 58 -7 80 -10 22 -3 58 -7 80 -9 22 -2 60 -7 85 -11 25 -4 56 -8 70 -10
14 -1 50 -6 81 -10 94 -12 161 39 165 124 4 80 -43 132 -131 145 -74 11 -200
27 -240 31 -16 2 -86 11 -155 20 -69 9 -144 18 -166 20 -23 2 -57 6 -75 9 -19
3 -61 8 -94 11 -33 3 -71 8 -85 10 -14 2 -50 7 -80 10 -54 6 -85 9 -165 19
-35 4 -66 8 -195 21 -82 9 -149 16 -180 20 -19 3 -62 7 -95 10 -33 3 -78 8
-100 10 -22 2 -66 7 -98 9 -32 3 -77 8 -100 11 -23 3 -69 7 -102 10 -33 3 -78
7 -100 10 -22 2 -71 7 -110 10 -38 3 -88 8 -110 10 -22 2 -67 7 -100 11 -33 3
-82 8 -110 9 -49 4 -106 9 -230 20 -64 6 -136 12 -250 20 -38 3 -95 7 -125 10
-30 4 -84 8 -120 10 -36 3 -99 7 -140 11 -41 3 -97 7 -125 9 -60 3 -222 15
-285 20 -96 8 -278 18 -332 19 -32 1 -58 3 -58 6 0 3 -26 5 -58 6 -31 0 -111
4 -177 8 -66 4 -149 9 -185 11 -36 2 -119 6 -185 10 -66 3 -160 8 -210 10 -49
2 -148 6 -220 10 -172 8 -471 20 -785 30 -174 6 -595 16 -875 21 -251 5 -229
4 -297 4 -29 0 -347 1 -706 3 -360 1 -655 0 -657 -2z"/>
</g>
</svg>
