<svg width="62" height="42" viewBox="0 0 62 42" fill="none" xmlns="http://www.w3.org/2000/svg">
<g clip-path="url(#clip0_19_100)">
<path d="M6.30416 1.86602C5.66958 11.5581 4.97022 21.2457 4.20609 30.9289C4.10399 32.2025 6.08019 32.1959 6.18229 30.9289C6.94642 21.2479 7.64578 11.5603 8.28036 1.86602C8.3627 0.592487 6.3865 0.595795 6.30416 1.86602Z" fill="#3772FF"/>
<path d="M3.71856 1.86919C9.77159 5.62677 15.5862 9.75854 21.1289 14.2406C22.117 15.0345 23.5168 13.6386 22.5254 12.8381C16.8579 8.24229 10.91 4.00658 4.71654 0.155716C3.63292 -0.505857 2.63823 1.19769 3.72844 1.86919H3.71856Z" fill="#3772FF"/>
<path d="M19.4624 14.6008C21.8997 12.583 24.4951 10.6677 26.7974 8.49775C28.3586 7.02244 29.4323 5.16012 28.5167 3.05631C28.0885 2.09372 26.715 2.66268 26.6755 3.5558C26.2475 13.1748 26.3586 22.8104 27.0082 32.4169C27.0938 33.6839 29.07 33.6938 28.9844 32.4169C28.3362 22.8126 28.2262 13.1792 28.655 3.56242L26.8106 4.06521C27.6471 5.94739 24.2975 8.03465 23.1612 8.98732L18.0659 13.1949C17.0778 14.0087 18.4875 15.4046 19.4624 14.6008Z" fill="#3772FF"/>
<path d="M38.48 6.34463L38.345 4.92886C38.2297 3.67848 36.3095 3.63217 36.3688 4.92886C36.8079 14.6319 37.5951 24.2975 38.7303 33.9256C38.8785 35.1793 40.8547 35.1959 40.7065 33.9256C39.5801 24.2909 38.7929 14.6253 38.345 4.92886H36.3688L36.5038 6.34463C36.6224 7.60492 38.5986 7.61816 38.48 6.34463Z" fill="#3772FF"/>
<path d="M40.3541 5.3721L38.9148 4.85608C38.0222 4.52529 37.1724 5.90798 37.953 6.51001C43.1585 10.516 47.7543 15.2632 51.5954 20.6015C53.3278 23.0328 55.584 26.6185 53.812 29.5956C51.9676 32.6885 47.6561 32.5198 44.5601 32.4172C43.2887 32.3742 43.292 34.359 44.5601 34.402C47.9921 34.5177 51.8226 34.4813 54.4609 31.9211C57.0135 29.4435 56.6874 25.8743 55.2876 22.884C53.6869 19.4504 50.963 16.3542 48.4466 13.5624C45.6705 10.4844 42.6272 7.66043 39.3528 5.12401L38.3911 6.77795L39.8304 7.27744C41.0293 7.70746 41.5464 5.7889 40.3541 5.36549V5.3721Z" fill="#3772FF"/>
<path d="M0.79382 39.1751C8.65251 38.8906 16.5145 38.8575 24.3798 39.0759C32.245 39.2942 40.0917 39.7716 47.9196 40.5082C52.3485 40.9228 56.7675 41.4178 61.1766 41.9934C61.3947 41.9925 61.6037 41.9051 61.7579 41.7502C61.9121 41.5953 61.9992 41.3855 62 41.1664C61.9942 40.949 61.9056 40.742 61.7524 40.5882C61.5992 40.4343 61.3932 40.3453 61.1766 40.3395C53.3794 39.3228 45.5548 38.5576 37.7027 38.0438C29.8506 37.53 21.993 37.2742 14.1299 37.2764C9.68343 37.2764 5.23807 37.358 0.79382 37.5212C-0.263447 37.5609 -0.266741 39.2148 0.79382 39.1751Z" fill="#3772FF"/>
</g>
<defs>
<clipPath id="clip0_19_100">
<rect width="62" height="42" fill="white"/>
</clipPath>
</defs>
</svg>
