<svg width="527" height="297" viewBox="0 0 527 297" fill="none" xmlns="http://www.w3.org/2000/svg">
<mask id="mask0_406_8" style="mask-type:alpha" maskUnits="userSpaceOnUse" x="0" y="-134" width="527" height="505">
<rect y="-134" width="527" height="505" fill="#D9D9D9"/>
</mask>
<g mask="url(#mask0_406_8)">
<path d="M1192.87 252.843C1193.83 252.651 1194.41 251.883 1194.41 250.923C1194.41 250.155 1194.22 249.579 1193.64 249.195C1192.87 248.811 1191.91 248.619 1190.95 248.619C1189.99 248.619 1188.83 248.619 1187.87 248.811V256.683H1189.6V253.611H1190.37C1191.33 253.611 1191.91 253.995 1192.1 254.763C1192.29 255.339 1192.49 256.107 1192.68 256.683H1194.6C1194.22 256.107 1194.02 255.339 1194.02 254.763C1194.22 253.995 1193.64 253.227 1192.87 252.843M1190.56 252.267H1189.6V249.963H1190.56C1191.72 249.963 1192.29 250.539 1192.29 251.115C1192.49 251.883 1191.53 252.459 1190.56 252.267M490.145 112.31C488.992 111.351 478.613 103.479 456.316 103.479C450.55 103.479 444.591 104.055 438.825 105.015C434.596 75.6414 410.185 61.4346 409.224 60.6666L403.265 57.2109L399.421 62.7785C394.616 70.2659 390.964 78.7132 388.85 87.3525C384.813 104.055 387.312 119.798 395.769 133.237C385.582 138.996 369.052 140.34 365.592 140.532H92.6513C85.5395 140.532 79.7731 146.292 79.7731 153.395C79.3887 177.201 83.4252 201.007 91.6903 223.469C101.109 248.043 115.14 266.282 133.208 277.417C153.582 289.896 186.835 297 224.316 297C241.231 297 258.146 295.464 274.868 292.392C298.126 288.168 320.422 280.105 340.989 268.394C357.904 258.603 373.088 246.124 385.966 231.533C407.686 207.151 420.565 179.889 429.983 155.699H433.827C457.469 155.699 472.077 146.292 480.15 138.228C485.532 133.237 489.569 127.093 492.452 120.182L494.182 115.19L490.145 112.31Z" fill="#0091E2"/>
</g>
<path d="M118.023 132.661H154.543C156.273 132.661 157.811 131.317 157.811 129.398V96.7602C157.811 95.0323 156.465 93.4965 154.543 93.4965H118.023C116.293 93.4965 114.755 94.8403 114.755 96.7602V129.398C114.948 131.317 116.293 132.661 118.023 132.661ZM168.383 132.661H204.903C206.633 132.661 208.17 131.317 208.17 129.398V96.7602C208.17 95.0323 206.825 93.4965 204.903 93.4965H168.383C166.653 93.4965 165.115 94.8403 165.115 96.7602V129.398C165.307 131.317 166.653 132.661 168.383 132.661ZM219.703 132.661H256.223C257.953 132.661 259.491 131.317 259.491 129.398V96.7602C259.491 95.0323 258.145 93.4965 256.223 93.4965H219.703C217.973 93.4965 216.436 94.8403 216.436 96.7602V129.398C216.436 131.317 217.781 132.661 219.703 132.661ZM218.934 132.661H255.455C257.184 132.661 258.722 131.317 258.722 129.398V96.7602C258.722 95.0323 257.377 93.4965 255.455 93.4965H218.934C217.204 93.4965 215.667 94.8403 215.667 96.7602V129.398C215.667 131.317 217.204 132.661 218.934 132.661ZM117.062 86.0091H153.582C155.312 86.0091 156.85 84.4732 156.85 82.7453V50.108C156.85 48.3801 155.504 46.8442 153.582 46.8442H117.062C115.332 46.8442 113.794 48.1881 113.794 50.108V82.7453C113.987 84.4732 115.332 86.0091 117.062 86.0091ZM168.383 86.0091H204.903C206.633 86.0091 208.17 84.4732 208.17 82.7453V50.108C208.17 48.3801 206.825 46.8442 204.903 46.8442H168.383C166.653 46.8442 165.115 48.1881 165.115 50.108V82.7453C165.115 84.4732 166.46 86.0091 168.383 86.0091ZM218.934 86.0091H255.455C257.184 86.0091 258.722 84.4732 258.722 82.7453V50.108C258.722 48.3801 257.184 46.8442 255.455 46.8442H218.934C217.204 46.8442 215.667 48.1881 215.667 50.108V82.7453C215.667 84.4732 217.204 86.0091 218.934 86.0091ZM218.934 39.1648H255.455C257.184 39.1648 258.722 37.821 258.722 35.9011V3.26376C258.722 1.5359 257.184 0 255.455 0H218.934C217.204 0 215.667 1.34391 215.667 3.26376V35.9011C215.667 37.629 217.204 39.1648 218.934 39.1648ZM269.87 132.661H306.391C308.121 132.661 309.658 131.317 309.658 129.398V96.7602C309.658 95.0323 308.313 93.4965 306.391 93.4965H269.87C268.14 93.4965 266.603 94.8403 266.603 96.7602V129.398C266.795 131.317 268.14 132.661 269.87 132.661" fill="#0091E2"/>
</svg>
