<svg width="214" height="46" viewBox="0 0 214 46" fill="none" xmlns="http://www.w3.org/2000/svg">
<g clip-path="url(#clip0_11_5671)">
<path d="M62.3046 29.1908C61.8545 28.6955 60.9727 28.2269 59.3383 28.8083C56.2957 29.7783 54.3396 29.8481 53.3559 29.0216C52.1279 27.988 52.4415 25.522 52.7735 22.9113C53.1289 20.1161 53.5311 16.9487 52.1452 14.7646L52.1197 14.7246L52.0831 14.6969C50.0659 13.1742 47.4937 8.31386 46.4459 4.90547L46.4367 4.87983C45.115 1.81905 43.8839 0.27891 42.5591 0.0338422C41.2201 -0.214302 40.0877 0.949515 39.0898 1.97696C38.2447 2.84854 37.4453 3.6709 36.7183 3.50274C35.6093 3.22383 34.4037 4.00313 33.2367 4.75679C32.3264 5.34433 31.469 5.90215 30.7837 5.87856C30.1666 5.86011 29.8235 5.30127 29.461 4.71064C29.0038 3.96621 28.4356 3.04131 27.2106 3.76011C25.5518 4.73525 22.6283 4.11592 21.6742 3.76011C20.4329 2.54707 19.1621 2.01387 17.8933 2.17486C14.755 2.57373 12.1013 7.00342 9.29188 11.6925C6.58631 16.2083 3.78909 20.878 0.636497 21.4952L0.552998 21.5117L0.495974 21.5752C-0.516197 22.7124 0.222057 23.5788 0.935871 24.4166C1.32384 24.8719 1.72504 25.3425 1.97961 25.926C2.40016 26.8908 3.22802 26.9821 4.02839 27.0693C5.22894 27.2015 6.47124 27.3379 6.69425 30.6069C6.86023 33.2759 7.5771 35.0847 8.82347 35.9819C10.4456 37.1488 12.5881 36.5582 14.0065 36.1675C14.481 36.0363 15.1276 35.8579 15.2804 35.9256C15.2936 35.9902 15.2794 36.2803 14.6022 37.3693C13.9597 38.2768 13.755 38.932 13.9566 39.4303C14.2153 40.0681 15.0319 40.2137 15.8221 40.3542C16.3577 40.4496 16.9646 40.5583 17.098 40.8156C17.1561 40.9274 17.1316 41.0997 17.0267 41.3253C16.2294 43.0469 16.4331 43.5421 17.154 43.9451C17.2691 44.0097 17.377 44.0702 17.4595 44.1533L17.5053 44.1994L17.5674 44.2179C21.5805 45.4186 24.8746 46 27.737 46C28.4895 46 29.2135 45.96 29.9121 45.88C32.9547 45.5324 35.2703 44.4619 37.7223 43.3289C39.156 42.6665 40.6386 41.9815 42.3911 41.3683C47.2778 39.661 49.7736 41.9374 51.5974 43.6006C52.7215 44.627 53.694 45.5119 54.8039 44.8875C57.2763 43.496 57.0757 42.1558 56.7987 40.2999C56.6277 39.1576 56.4149 37.7354 56.7631 35.8671C57.0197 34.488 57.3181 33.7169 57.651 33.5754C57.9077 33.4667 58.3119 33.7384 58.7793 34.0532C59.3882 34.4633 60.1448 34.973 61.0877 34.9996C61.0969 34.9996 61.1051 34.9996 61.1132 34.9996C61.6397 34.9996 62.1325 34.5495 62.5052 33.7281C63.1477 32.3141 63.2485 30.2305 62.3046 29.1898V29.1908ZM62.0429 33.5159C61.77 34.1168 61.4146 34.4869 61.1122 34.4869H61.102C60.3057 34.4644 59.6448 34.0204 59.0624 33.6277C58.4728 33.2308 57.9637 32.8873 57.4535 33.1037C56.925 33.3262 56.5696 34.125 56.2621 35.7728C55.8986 37.7251 56.1185 39.1955 56.2957 40.3757C56.5696 42.2112 56.7203 43.2212 54.5555 44.4404C53.8009 44.8649 53.1044 44.2845 51.9385 43.2212C50.129 41.5703 47.3949 39.0766 42.2241 40.8843C40.4482 41.5047 38.9544 42.1958 37.5105 42.8633C32.5372 45.1612 28.6076 46.9782 17.7701 43.7431C17.6499 43.6365 17.5186 43.5627 17.4015 43.497C17.0379 43.294 16.7508 43.133 17.488 41.5426C17.6642 41.1643 17.6846 40.8402 17.5501 40.5788C17.3007 40.0968 16.6255 39.9769 15.9117 39.8497C15.2875 39.738 14.5808 39.6118 14.4281 39.2365C14.3028 38.9289 14.5085 38.3844 15.0207 37.6615L15.0299 37.6482C15.7498 36.4905 15.929 35.9399 15.6908 35.6159C15.4179 35.2467 14.8028 35.4159 13.8721 35.6733C12.4679 36.0599 10.5454 36.59 9.11979 35.5646C8.00376 34.7617 7.35817 33.0821 7.20237 30.573C6.94984 26.8744 5.3603 26.7001 4.08338 26.5596C3.33698 26.4776 2.74841 26.413 2.44598 25.7199C2.16086 25.0667 1.71587 24.5437 1.3218 24.0823C0.559108 23.1871 0.210856 22.7124 0.820806 21.9803C4.15669 21.2563 6.98853 16.5293 9.72771 11.9571C12.3508 7.57866 15.0635 3.05156 17.9564 2.68345C19.0918 2.53887 20.2038 3.02388 21.3555 4.16411L21.3931 4.20103L21.442 4.22051C22.1568 4.49941 25.4754 5.37305 27.4672 4.20308C28.2299 3.75498 28.5119 4.1395 29.0282 4.98032C29.4263 5.62837 29.8774 6.3646 30.7674 6.39126C31.6116 6.41382 32.5331 5.82012 33.5117 5.18848C34.587 4.49326 35.7 3.77446 36.5991 4.00107C37.6103 4.23486 38.5064 3.31201 39.4544 2.33584C40.4075 1.35454 41.3932 0.339408 42.4664 0.537308C43.5764 0.743412 44.7525 2.26817 45.9632 5.07056C46.8868 8.06674 49.4631 13.3229 51.7399 15.0784C52.9975 17.1066 52.6106 20.1551 52.2684 22.8457C51.9181 25.5999 51.5882 28.2023 53.0301 29.4143C54.1726 30.3751 56.2255 30.3382 59.4992 29.2944C60.6071 28.9006 61.4248 28.9826 61.9288 29.5374C62.72 30.409 62.604 32.2813 62.0429 33.5159Z" fill="#F3A51E"/>
<path d="M62.0429 33.5159C61.77 34.1168 61.4146 34.487 61.1122 34.487H61.102C60.3057 34.4644 59.6448 34.0204 59.0624 33.6277C58.4728 33.2309 57.9637 32.8873 57.4535 33.1037C56.925 33.3262 56.5696 34.125 56.2621 35.7728C55.8986 37.7251 56.1185 39.1955 56.2957 40.3758C56.5696 42.2112 56.7203 43.2212 54.5555 44.4404C53.8009 44.8649 53.1044 44.2846 51.9385 43.2212C50.129 41.5703 47.3949 39.0766 42.2241 40.8844C40.4482 41.5047 38.9544 42.1958 37.5105 42.8634C32.5372 45.1613 28.6076 46.9782 17.7701 43.7431C17.6499 43.6365 17.5186 43.5627 17.4015 43.4971C17.0379 43.294 16.7508 43.133 17.488 41.5427C17.6642 41.1643 17.6846 40.8403 17.5501 40.5788C17.3007 40.0969 16.6255 39.9769 15.9117 39.8497C15.2875 39.738 14.5808 39.6118 14.4281 39.2366C14.3028 38.9289 14.5085 38.3845 15.0207 37.6616L15.0299 37.6482C15.7498 36.4906 15.929 35.9399 15.6908 35.6159C15.4179 35.2468 14.8028 35.416 13.8721 35.6733C12.4679 36.0599 10.5454 36.59 9.1198 35.5646C8.00376 34.7618 7.35817 33.0822 7.20237 30.573C6.94984 26.8745 5.3603 26.7001 4.08338 26.5597C3.33698 26.4776 2.74842 26.413 2.44599 25.7199C2.16087 25.0667 1.71588 24.5437 1.3218 24.0823C0.559112 23.1872 0.21086 22.7124 0.82081 21.9803C4.1567 21.2564 6.98854 16.5293 9.72771 11.9571C12.3508 7.57868 15.0635 3.05158 17.9564 2.68347C19.0918 2.53889 20.2038 3.0239 21.3555 4.16413L21.3931 4.20105L21.442 4.22053C22.1568 4.49943 25.4754 5.37307 27.4672 4.2031C28.2299 3.755 28.5119 4.13952 29.0282 4.98034C29.4263 5.62839 29.8774 6.36462 30.7674 6.39128C31.6116 6.41384 32.5331 5.82014 33.5117 5.1885C34.587 4.49328 35.7 3.77448 36.5991 4.00109C37.6103 4.23488 38.5064 3.31203 39.4544 2.33586C40.4075 1.35456 41.3932 0.339428 42.4664 0.537328C43.5764 0.743431 44.7525 2.26819 45.9632 5.07058C46.8868 8.06676 49.4631 13.3229 51.7399 15.0784C52.9975 17.1066 52.6106 20.1551 52.2684 22.8457C51.9181 25.5999 51.5882 28.2023 53.0301 29.4143C54.1726 30.3751 56.2255 30.3382 59.4992 29.2944C60.6071 28.9006 61.4248 28.9827 61.9288 29.5374C62.72 30.409 62.604 32.2813 62.0429 33.5159Z" fill="#1884F4"/>
<path d="M33.3293 16.7979C33.3375 16.7139 33.3446 16.6298 33.3538 16.5447C33.3538 16.5406 33.3548 16.5365 33.3548 16.5334C32.753 16.3581 32.1298 16.2709 31.4995 16.2709H31.4638C31.4363 16.2709 31.4078 16.2709 31.3803 16.2719C30.7897 16.2822 30.2063 16.3693 29.6431 16.5334C29.6411 16.5344 29.6391 16.5344 29.637 16.5354C29.635 16.5324 29.634 16.5303 29.633 16.5272H29.6319C29.4079 16.1417 29.2134 15.7849 29.0536 15.4332C29.1299 15.8105 29.1819 16.2145 29.2257 16.6585C29.2257 16.6626 29.2267 16.6657 29.2267 16.6698C29.2246 16.6708 29.2226 16.6708 29.2206 16.6718C29.2643 16.7487 29.3092 16.8246 29.354 16.9005C29.3937 16.9671 29.4639 17.0061 29.5383 17.0061H29.5403C29.5474 17.0061 29.5546 17.0061 29.5617 17.0051C29.5749 17.003 29.5892 16.9999 29.6024 16.9958C30.138 16.8256 30.693 16.7282 31.2571 16.7057C31.2958 16.7046 31.3355 16.7036 31.3742 16.7026C31.4038 16.7016 31.4343 16.7016 31.4638 16.7016H31.4995C32.1461 16.7016 32.7835 16.801 33.3955 16.9958C33.4087 16.9999 33.423 17.003 33.4362 17.0051C33.365 16.963 33.3212 16.8831 33.3293 16.7979V16.7979ZM34.8598 13.3393C34.8557 13.1476 34.8343 12.9661 34.7946 12.7938C34.758 12.6236 34.704 12.4626 34.6337 12.3108C34.1877 11.349 33.1308 10.8825 31.4995 10.9296C31.4251 10.9276 31.3508 10.9266 31.2795 10.9266C29.7714 10.9266 28.7898 11.3921 28.3642 12.3108C28.2939 12.4626 28.24 12.6236 28.2033 12.7938C28.1636 12.9661 28.1422 13.1476 28.1381 13.3393C28.1239 13.7566 28.1901 14.2191 28.3336 14.7236C28.5281 15.4024 28.8631 16.0535 29.2145 16.6626L29.2206 16.6718C29.2643 16.7487 29.3092 16.8246 29.354 16.9005C29.3937 16.9671 29.4639 17.0061 29.5383 17.0061H29.5403C29.5474 17.0061 29.5546 17.0061 29.5617 17.0051C29.5749 17.003 29.5892 16.9999 29.6024 16.9958C30.138 16.8256 30.693 16.7282 31.2571 16.7057C31.2958 16.7046 31.3355 16.7036 31.3742 16.7026C31.4038 16.7016 31.4343 16.7016 31.4638 16.7016H31.4995C32.1461 16.7016 32.7835 16.801 33.3955 16.9958C33.4087 16.9999 33.423 17.003 33.4362 17.0051C33.5187 17.0143 33.6002 16.9743 33.644 16.9005C33.6867 16.8287 33.7285 16.7559 33.7713 16.6831C33.7733 16.679 33.7753 16.6759 33.7774 16.6718C34.1317 16.0597 34.4698 15.4055 34.6643 14.7236C34.8079 14.2191 34.8741 13.7566 34.8598 13.3393V13.3393ZM34.2529 14.6036C34.1725 14.8825 34.0696 15.1553 33.9444 15.4311V15.4332C33.7835 15.7869 33.588 16.1468 33.3619 16.5354C33.3599 16.5344 33.3568 16.5344 33.3548 16.5334C32.753 16.3581 32.1298 16.2709 31.4995 16.2709H31.4638C31.4363 16.2709 31.4078 16.2709 31.3803 16.2719C30.7897 16.2822 30.2063 16.3693 29.6431 16.5334C29.6411 16.5344 29.6391 16.5344 29.637 16.5354C29.635 16.5324 29.634 16.5303 29.633 16.5272H29.6319C29.4079 16.1417 29.2134 15.7849 29.0536 15.4332V15.4311C28.9283 15.1553 28.8245 14.8825 28.745 14.6036C28.6982 14.4375 28.6595 14.2775 28.631 14.1227C28.5678 13.7864 28.5485 13.4767 28.574 13.1958C28.5953 12.9363 28.6554 12.7015 28.7522 12.4934C29.1014 11.7397 29.9517 11.3572 31.2795 11.3572C31.3488 11.3572 31.4211 11.3583 31.4923 11.3603H31.5056C31.5769 11.3583 31.6492 11.3572 31.7184 11.3572C33.0462 11.3572 33.8965 11.7397 34.2468 12.4934C34.3435 12.7025 34.4026 12.9363 34.425 13.1958C34.4494 13.4757 34.4301 13.7854 34.367 14.1227C34.3384 14.2765 34.3008 14.4375 34.2529 14.6036V14.6036Z" fill="#F3A51E"/>
<path d="M29.5404 17.0061H29.5383C29.464 17.0061 29.3938 16.9671 29.354 16.9005C29.3092 16.8246 29.2644 16.7487 29.2206 16.6718C28.0303 17.1045 26.9977 17.8612 26.2177 18.8702C26.2177 18.8713 26.2157 18.8733 26.2147 18.8743C26.2065 18.8702 26.1984 18.8672 26.1902 18.8631C25.789 18.6867 25.4265 18.5144 25.0966 18.3258C25.3756 18.5841 25.6506 18.8764 25.9418 19.2055C25.9479 19.2117 25.954 19.2189 25.9601 19.226C25.9591 19.2281 25.9581 19.2291 25.9571 19.2312C26.0385 19.2671 26.119 19.3029 26.1994 19.3378C26.2259 19.3501 26.2554 19.3552 26.2829 19.3552C26.3155 19.3552 26.3471 19.3481 26.3756 19.3347C26.3939 19.3255 26.4112 19.3142 26.4265 19.2999C26.4377 19.2906 26.4468 19.2804 26.456 19.2681C27.2309 18.2109 28.291 17.4347 29.5231 17.0225C29.5363 17.0174 29.5495 17.0122 29.5618 17.005C29.5546 17.0061 29.5475 17.0061 29.5404 17.0061V17.0061ZM29.6432 16.5334C29.6432 16.5334 29.6432 16.5272 29.6422 16.5252C29.5709 15.8228 29.462 15.0958 29.2227 14.4323C29.0445 13.9391 28.8276 13.5259 28.574 13.1957C28.459 13.044 28.3347 12.9096 28.2034 12.7938C28.073 12.6779 27.9346 12.5795 27.79 12.4985C27.4835 12.3272 27.1474 12.2411 26.79 12.2411C26.0854 12.2411 25.2972 12.5764 24.448 13.2367C23.8859 13.6233 23.4511 14.0304 23.1558 14.4457C22.7505 15.0189 22.6028 15.6115 22.7179 16.2104C22.7495 16.3734 22.7994 16.5354 22.8686 16.6954C22.9379 16.8574 23.0264 17.0174 23.1344 17.1753C23.3665 17.5208 23.6904 17.8561 24.1017 18.1791C24.6496 18.6098 25.2952 18.9359 25.9316 19.2199C25.9397 19.224 25.9489 19.2281 25.9571 19.2312C26.0385 19.2671 26.119 19.3029 26.1994 19.3378C26.2259 19.3501 26.2554 19.3552 26.2829 19.3552C26.3155 19.3552 26.3471 19.3481 26.3756 19.3347C26.3939 19.3255 26.4112 19.3142 26.4265 19.2999C26.4377 19.2906 26.4468 19.2804 26.456 19.2681C27.2309 18.2109 28.291 17.4347 29.5231 17.0225C29.5363 17.0174 29.5495 17.0122 29.5618 17.005C29.5679 17.0009 29.574 16.9979 29.5791 16.9927C29.6402 16.9497 29.6758 16.8759 29.6687 16.7979C29.6605 16.7097 29.6524 16.6216 29.6432 16.5334V16.5334ZM26.2147 18.8743C26.2065 18.8702 26.1984 18.8672 26.1902 18.8631C25.789 18.6867 25.4265 18.5144 25.0966 18.3258C24.8349 18.176 24.5915 18.0171 24.3645 17.8397C24.229 17.7331 24.1038 17.6254 23.9897 17.5167C23.7423 17.2819 23.5468 17.043 23.4032 16.801C23.2698 16.5785 23.1812 16.355 23.1374 16.1283C22.9725 15.266 23.4959 14.4118 24.6944 13.5895C24.6974 13.5864 24.7005 13.5843 24.7046 13.5813C25.4795 12.9783 26.1811 12.6718 26.79 12.6718C27.0741 12.6718 27.3409 12.7405 27.5832 12.8758C27.7839 12.9876 27.9692 13.1424 28.1382 13.3393C28.3215 13.5515 28.4865 13.813 28.6311 14.1227C28.6993 14.2652 28.7624 14.417 28.8205 14.58C28.9182 14.8517 28.9936 15.1327 29.0536 15.4311V15.4331C29.13 15.8105 29.182 16.2145 29.2257 16.6585C29.2257 16.6626 29.2268 16.6656 29.2268 16.6697C29.2247 16.6708 29.2227 16.6708 29.2206 16.6718C28.0303 17.1045 26.9977 17.8612 26.2177 18.8702C26.2177 18.8713 26.2157 18.8733 26.2147 18.8743V18.8743Z" fill="#F3A51E"/>
<path d="M26.3755 19.3347C26.347 19.3481 26.3154 19.3552 26.2829 19.3552C26.2554 19.3552 26.2258 19.3501 26.1994 19.3378C26.1189 19.303 26.0385 19.2671 25.957 19.2312C25.2452 20.2863 24.8512 21.5086 24.8104 22.7862V22.7924C24.7982 22.7954 24.786 22.7975 24.7738 22.8006C24.3848 22.8857 23.9826 22.9646 23.5824 23.0097C23.9826 23.0538 24.3848 23.1307 24.7738 23.2158C24.786 23.2189 24.7982 23.221 24.8104 23.224V23.2343C24.897 23.2158 24.9825 23.1964 25.0681 23.1769C25.123 23.1646 25.1699 23.1307 25.1994 23.0846C25.2137 23.062 25.2249 23.0374 25.23 23.0108C25.233 22.9964 25.2351 22.982 25.2351 22.9677C25.2432 21.6552 25.6485 20.3991 26.4061 19.3368C26.4142 19.3255 26.4213 19.3132 26.4264 19.2999C26.4112 19.3142 26.3939 19.3255 26.3755 19.3347V19.3347ZM26.3928 19.0692C26.3348 19.0025 26.2768 18.9369 26.2177 18.8702C26.2126 18.8631 26.2065 18.8569 26.2004 18.8508C25.736 18.3278 25.2279 17.811 24.6506 17.4183C24.2188 17.125 23.8013 16.9179 23.4032 16.801C23.2209 16.7467 23.0427 16.7118 22.8686 16.6954C22.6955 16.679 22.5274 16.681 22.3635 16.7015C21.7627 16.7764 21.2475 17.1004 20.832 17.6664C20.5306 18.0776 20.2811 18.62 20.0897 19.2773C19.8606 19.9223 19.7465 20.5088 19.7506 21.0195C19.7557 21.7239 19.9828 22.2909 20.4257 22.7072C20.5469 22.8211 20.6813 22.9216 20.831 23.0108C20.9817 23.101 21.1467 23.1779 21.3249 23.2415C21.7159 23.383 22.1731 23.463 22.6944 23.4814C22.7555 23.4835 22.8187 23.4855 22.8808 23.4855C23.5162 23.4855 24.1608 23.3748 24.7748 23.2425C24.787 23.2394 24.7982 23.2374 24.8104 23.2343C24.897 23.2158 24.9825 23.1964 25.0681 23.1769C25.123 23.1646 25.1699 23.1307 25.1994 23.0846C25.2137 23.062 25.2249 23.0374 25.23 23.0108C25.233 22.9964 25.2351 22.982 25.2351 22.9677C25.2432 21.6552 25.6485 20.3991 26.4061 19.3368C26.4142 19.3255 26.4213 19.3132 26.4264 19.2999C26.4356 19.2804 26.4417 19.2599 26.4438 19.2394C26.4519 19.1789 26.4346 19.1163 26.3928 19.0692V19.0692ZM24.8104 22.7924C24.7982 22.7954 24.786 22.7975 24.7738 22.8006C24.3848 22.8857 23.9826 22.9646 23.5824 23.0097C23.3472 23.0364 23.113 23.0528 22.8808 23.0528C22.8238 23.0528 22.7657 23.0518 22.7087 23.0497C22.5366 23.0436 22.3727 23.0302 22.2179 23.0097C21.8808 22.9667 21.5825 22.8898 21.3249 22.779C21.0876 22.6785 20.885 22.5483 20.718 22.3914C20.0805 21.7926 20.0052 20.7918 20.495 19.4168L20.498 19.4045C20.9053 18.0017 21.5499 17.2368 22.4154 17.1291C22.4887 17.1199 22.5651 17.1158 22.6415 17.1158C22.8003 17.1158 22.9643 17.1353 23.1343 17.1753C23.4062 17.2388 23.6924 17.3527 23.9897 17.5167C24.1272 17.5916 24.2677 17.6787 24.4113 17.7751C24.6495 17.9371 24.8746 18.1207 25.0966 18.3258C25.3756 18.5842 25.6505 18.8764 25.9417 19.2055C25.9478 19.2117 25.954 19.2189 25.9601 19.226C25.959 19.2281 25.958 19.2291 25.957 19.2312C25.2452 20.2863 24.8512 21.5086 24.8104 22.7862V22.7924V22.7924Z" fill="#F3A51E"/>
<path d="M26.4061 26.6837C25.6485 25.6204 25.2432 24.3653 25.2351 23.0528C25.2351 23.0385 25.233 23.0241 25.23 23.0108C25.2249 23.0374 25.2137 23.062 25.1994 23.0846C25.1699 23.1307 25.123 23.1646 25.0681 23.1769C24.9825 23.1964 24.897 23.2158 24.8104 23.2343C24.8522 24.5119 25.2473 25.7311 25.9601 26.7863L25.958 26.7883C26.0385 26.7524 26.1189 26.7175 26.1994 26.6827C26.2574 26.6581 26.3216 26.6601 26.3755 26.6858C26.3949 26.695 26.4122 26.7073 26.4275 26.7217C26.4224 26.7083 26.4142 26.696 26.4061 26.6837ZM26.4438 26.7811C26.4417 26.7606 26.4356 26.7411 26.4275 26.7217C26.4224 26.7083 26.4142 26.696 26.4061 26.6837C25.6485 25.6204 25.2432 24.3653 25.2351 23.0528C25.2351 23.0385 25.233 23.0241 25.23 23.0108C25.2249 22.9841 25.2147 22.9585 25.1994 22.9369C25.1699 22.8908 25.1241 22.857 25.0681 22.8436C24.9825 22.8241 24.897 22.8047 24.8104 22.7862C24.7982 22.7831 24.787 22.7811 24.7748 22.778C24.1608 22.6468 23.5162 22.536 22.8808 22.536C22.8187 22.536 22.7555 22.537 22.6944 22.5391C22.1731 22.5575 21.7159 22.6375 21.3249 22.779C21.1467 22.8426 20.9817 22.9195 20.831 23.0108C20.6813 23.0979 20.5469 23.1994 20.4257 23.3133C19.9828 23.7285 19.7557 24.2956 19.7506 24.999C19.7465 25.5107 19.8606 26.0951 20.0897 26.7401C20.2811 27.3984 20.5306 27.9367 20.832 28.3479C21.2475 28.9139 21.7627 29.2339 22.3635 29.3077C22.4541 29.319 22.5478 29.3138 22.6415 29.3138C22.7199 29.3138 22.7983 29.3097 22.8787 29.3026C23.0539 29.2861 23.2331 29.2503 23.4164 29.1969C23.8105 29.0821 24.2239 28.8811 24.6506 28.5909C25.2279 28.1982 25.736 27.6886 26.2004 27.1697C26.2065 27.1626 26.2126 27.1564 26.2187 27.1503C26.2768 27.0836 26.3348 27.018 26.3928 26.9513C26.4346 26.9042 26.4519 26.8416 26.4438 26.7811V26.7811ZM24.4113 28.23C24.284 28.3161 24.1577 28.3941 24.0345 28.4617C23.8461 28.5674 23.6618 28.6525 23.4836 28.716C23.3726 28.756 23.2637 28.7878 23.1567 28.8124C22.9796 28.8545 22.8075 28.8739 22.6425 28.8739C22.5661 28.8739 22.4898 28.8852 22.4165 28.876C21.5509 28.7683 20.9063 28.0177 20.499 26.616L20.496 26.6037C20.0062 25.2287 20.0815 24.2279 20.719 23.6291C20.886 23.4722 21.0886 23.342 21.3259 23.2415C21.5835 23.1307 21.8819 23.0538 22.2189 23.0097C22.3737 22.9892 22.5376 22.9769 22.7097 22.9708C22.7667 22.9687 22.8238 22.9677 22.8818 22.9677C23.114 22.9677 23.3482 22.9831 23.5834 23.0097C23.9836 23.0538 24.3858 23.1307 24.7748 23.2158C24.787 23.2189 24.7992 23.221 24.8114 23.224V23.2343C24.8532 24.5119 25.2483 25.7311 25.9611 26.7863L25.959 26.7883C25.9529 26.7955 25.9468 26.8027 25.9397 26.8098C25.6363 27.1533 25.3511 27.4538 25.0589 27.7173C24.8491 27.907 24.6363 28.0772 24.4123 28.23H24.4113Z" fill="#F3A51E"/>
<path d="M29.523 28.998C28.2909 28.5858 27.2309 27.8096 26.456 26.7524C26.4478 26.7411 26.4376 26.7309 26.4275 26.7217C26.4122 26.7073 26.3949 26.695 26.3755 26.6858C26.3216 26.6601 26.2574 26.6581 26.1994 26.6827C26.1189 26.7176 26.0385 26.7524 25.958 26.7883C25.9519 26.7955 25.9458 26.8027 25.9387 26.8098C25.6352 27.1533 25.3501 27.4538 25.0579 27.7173C25.398 27.5204 25.7727 27.34 26.1902 27.1564C26.1983 27.1523 26.2065 27.1493 26.2146 27.1451C26.2157 27.1472 26.2177 27.1482 26.2187 27.1503C26.9987 28.1603 28.0313 28.916 29.2206 29.3487C29.2644 29.2718 29.3092 29.1959 29.354 29.12C29.3937 29.0524 29.466 29.0134 29.5403 29.0144C29.5475 29.0144 29.5546 29.0144 29.5617 29.0165C29.5495 29.0083 29.5363 29.0032 29.523 28.998V28.998ZM29.579 29.0278C29.579 29.0278 29.5678 29.0196 29.5617 29.0165C29.5495 29.0083 29.5363 29.0032 29.523 28.998C28.2909 28.5858 27.2309 27.8096 26.456 26.7524C26.4478 26.7411 26.4376 26.7309 26.4275 26.7217C26.4122 26.7073 26.3949 26.695 26.3755 26.6858C26.3216 26.6601 26.2574 26.6581 26.1994 26.6827C26.1189 26.7176 26.0385 26.7524 25.958 26.7883C25.9489 26.7924 25.9407 26.7965 25.9316 26.8006C25.2951 27.0836 24.6495 27.4107 24.1017 27.8414C23.7036 28.1541 23.3879 28.4792 23.1567 28.8124C23.0447 28.9734 22.9521 29.1375 22.8798 29.3026C22.8054 29.4707 22.7515 29.6399 22.7189 29.8112C22.6038 30.409 22.7515 31.0037 23.1567 31.5759C23.452 31.9922 23.8868 32.4003 24.4489 32.7868C25.2982 33.4482 26.0863 33.7866 26.791 33.7866C27.1484 33.7866 27.4844 33.6964 27.7909 33.5251C27.9355 33.4441 28.074 33.3457 28.2044 33.2288C28.3357 33.1119 28.4599 32.9776 28.575 32.8258C28.8296 32.4946 29.0465 32.0803 29.2237 31.5882C29.463 30.9237 29.5719 30.1977 29.6432 29.4964C29.6442 29.4933 29.6442 29.4902 29.6442 29.4871C29.6534 29.399 29.6615 29.3108 29.6697 29.2226C29.6768 29.1447 29.6412 29.0708 29.5801 29.0278H29.579ZM28.8204 31.4405C28.7624 31.6035 28.6992 31.7553 28.631 31.8978C28.4864 32.2075 28.3215 32.469 28.1382 32.6812C27.9691 32.8781 27.7838 33.0329 27.5832 33.1447C27.3409 33.2801 27.0741 33.3488 26.79 33.3488C26.181 33.3477 25.4794 33.0422 24.7045 32.4382C24.7005 32.4362 24.6974 32.4331 24.6943 32.431C23.4958 31.6076 22.9724 30.7535 23.1374 29.8922C23.1832 29.6584 23.2749 29.4266 23.4164 29.197C23.5671 28.9488 23.7738 28.7027 24.0345 28.4617C24.1363 28.3674 24.2463 28.2741 24.3644 28.1808C24.5803 28.0116 24.8104 27.8588 25.0579 27.7173C25.398 27.5204 25.7727 27.34 26.1902 27.1564C26.1983 27.1523 26.2065 27.1493 26.2146 27.1451C26.2157 27.1472 26.2177 27.1482 26.2187 27.1503C26.9987 28.1603 28.0313 28.916 29.2206 29.3487C29.2226 29.3497 29.2247 29.3497 29.2267 29.3508C29.2267 29.3549 29.2257 29.3579 29.2257 29.362C29.1819 29.805 29.13 30.209 29.0546 30.5864C28.9945 30.8847 28.9192 31.1667 28.8204 31.4405V31.4405Z" fill="#F3A51E"/>
<path d="M33.7723 29.3508C33.7723 29.3508 33.7763 29.3497 33.7784 29.3487C33.7753 29.3446 33.7733 29.3405 33.7713 29.3364C33.7285 29.2636 33.6867 29.1908 33.644 29.119C33.6002 29.0462 33.5187 29.0062 33.4373 29.0155C33.423 29.0175 33.4087 29.0206 33.3955 29.0247C32.7835 29.2195 32.1461 29.319 31.4995 29.319H31.4638C31.4343 29.319 31.4048 29.319 31.3752 29.318C30.7714 29.3057 30.1747 29.2072 29.6024 29.0247C29.5892 29.0206 29.5749 29.0175 29.5617 29.0165C29.5546 29.0155 29.5474 29.0144 29.5403 29.0144C29.466 29.0134 29.3937 29.0524 29.354 29.1201C29.3092 29.1959 29.2643 29.2718 29.2206 29.3487C29.2226 29.3497 29.2246 29.3497 29.2267 29.3508C29.2267 29.3549 29.2257 29.358 29.2257 29.3621C29.1819 29.805 29.1299 30.209 29.0546 30.5864C29.2134 30.2357 29.4079 29.8778 29.6319 29.4933H29.633C29.633 29.4933 29.635 29.4882 29.637 29.4851C29.6391 29.4861 29.6411 29.4861 29.6431 29.4872C30.2063 29.6502 30.7897 29.7384 31.3803 29.7486C31.4078 29.7497 31.4363 29.7497 31.4638 29.7497H31.4995C32.1308 29.7497 32.753 29.6615 33.3548 29.4872C33.3568 29.4861 33.3599 29.4861 33.3619 29.4851C33.588 29.8727 33.7835 30.2326 33.9433 30.5864C33.867 30.2049 33.8161 29.7989 33.7723 29.3508ZM34.6643 31.297C34.4698 30.6151 34.1317 29.9619 33.7784 29.3487C33.7753 29.3446 33.7733 29.3405 33.7713 29.3364C33.7285 29.2636 33.6867 29.1908 33.644 29.119C33.6002 29.0462 33.5187 29.0062 33.4373 29.0155C33.423 29.0175 33.4087 29.0206 33.3955 29.0247C32.7835 29.2195 32.1461 29.319 31.4995 29.319H31.4638C31.4343 29.319 31.4048 29.319 31.3752 29.318C30.7714 29.3057 30.1747 29.2072 29.6024 29.0247C29.5892 29.0206 29.5749 29.0175 29.5617 29.0165C29.5546 29.0155 29.5474 29.0144 29.5403 29.0144C29.466 29.0134 29.3937 29.0524 29.354 29.1201C29.3092 29.1959 29.2643 29.2718 29.2206 29.3487L29.2145 29.358C28.8631 29.967 28.5271 30.6192 28.3336 31.298C28.1901 31.8015 28.1239 32.2639 28.1381 32.6812C28.1422 32.874 28.1636 33.0565 28.2033 33.2288C28.24 33.4 28.2939 33.56 28.3642 33.7107C28.7898 34.6295 29.7704 35.0971 31.2795 35.0971C31.3508 35.0971 31.4251 35.0991 31.4995 35.0971C31.5728 35.0991 31.6471 35.1063 31.7184 35.1063C33.2275 35.1063 34.2081 34.6336 34.6337 33.7148C34.704 33.5631 34.758 33.4011 34.7956 33.2298C34.8343 33.0565 34.8557 32.873 34.8608 32.6802C34.873 32.2629 34.8079 31.7994 34.6643 31.297V31.297ZM34.425 32.8279C34.4026 33.0852 34.3435 33.319 34.2468 33.5272C33.8965 34.2808 33.0462 34.6633 31.7184 34.6633C31.6492 34.6633 31.5769 34.6623 31.5056 34.6602C31.5035 34.6592 31.5015 34.6592 31.4995 34.6592C31.4964 34.6592 31.4944 34.6592 31.4923 34.6602C31.4211 34.6623 31.3488 34.6633 31.2795 34.6633C29.9517 34.6633 29.1014 34.2808 28.7522 33.5272C28.6554 33.319 28.5953 33.0842 28.574 32.8258C28.5485 32.5449 28.5678 32.2352 28.631 31.8978C28.6595 31.743 28.6982 31.582 28.745 31.4159C28.8245 31.136 28.9283 30.8632 29.0546 30.5864C29.2134 30.2357 29.4079 29.8778 29.6319 29.4933H29.633C29.633 29.4933 29.635 29.4882 29.637 29.4851C29.6391 29.4861 29.6411 29.4861 29.6431 29.4872C30.2063 29.6502 30.7897 29.7384 31.3803 29.7486C31.4078 29.7497 31.4363 29.7497 31.4638 29.7497H31.4995C32.1308 29.7497 32.753 29.6615 33.3548 29.4872C33.3568 29.4861 33.3599 29.4861 33.3619 29.4851C33.588 29.8727 33.7835 30.2326 33.9433 30.5864C34.0686 30.8632 34.1725 31.136 34.2529 31.4159C34.3008 31.582 34.3384 31.743 34.367 31.8978C34.4301 32.2352 34.4494 32.5459 34.425 32.8279V32.8279Z" fill="#F3A51E"/>
<path d="M36.208 33.7866C35.8506 33.7866 35.5146 33.6963 35.2081 33.5251C34.5981 33.1847 34.1165 32.5325 33.7764 31.5892C33.5055 30.8386 33.4017 30.008 33.3304 29.2226C33.3212 29.1231 33.3813 29.0298 33.476 28.998C34.7081 28.5858 35.7682 27.8096 36.5431 26.7524C36.6021 26.6714 36.708 26.6427 36.7997 26.6827C37.5196 26.9944 38.2721 27.3492 38.8973 27.8414C39.6824 28.4587 40.1488 29.1211 40.2812 29.8101C40.3962 30.4079 40.2486 31.0016 39.8423 31.5748C39.547 31.9911 39.1132 32.4013 38.5511 32.7879C37.7008 33.4482 36.9127 33.7866 36.2091 33.7866H36.208ZM33.7713 29.3507C33.8487 30.1495 33.9526 30.8181 34.1776 31.4405C34.481 32.2823 34.8975 32.8555 35.4148 33.1437C35.6572 33.279 35.9239 33.3467 36.208 33.3467C36.817 33.3467 37.5186 33.0411 38.2935 32.4382C38.2965 32.4351 38.3006 32.4331 38.3037 32.431C39.5022 31.6076 40.0256 30.7545 39.8596 29.8921C39.7476 29.3077 39.3342 28.7324 38.6326 28.1808C38.1143 27.7727 37.5145 27.4671 36.7834 27.1451C36.0013 28.1592 34.9657 28.917 33.7713 29.3507Z" fill="#F3A51E"/>
<path d="M40.3566 29.3138C39.7395 29.3138 39.0634 29.078 38.3475 28.5909C37.6897 28.1439 37.1215 27.5389 36.6052 26.9452C36.5401 26.8703 36.534 26.7616 36.592 26.6806C37.3496 25.6173 37.7539 24.3633 37.763 23.0508C37.763 22.9503 37.8323 22.8652 37.93 22.8426C38.6306 22.6826 39.38 22.536 40.1173 22.536C40.1804 22.536 40.2425 22.537 40.3036 22.5391C41.2995 22.574 42.0632 22.8344 42.5724 23.3133C43.0143 23.7285 43.2414 24.2966 43.2475 25C43.2515 25.5107 43.1375 26.0972 42.9084 26.7422C42.717 27.3994 42.4675 27.9419 42.165 28.352C41.7496 28.918 41.2343 29.2318 40.6346 29.3067C40.5439 29.3179 40.4503 29.3128 40.3566 29.3128V29.3138ZM37.038 26.7934C37.5675 27.3943 38.042 27.8588 38.5868 28.229C39.2304 28.6668 39.8261 28.8739 40.3566 28.8739C40.4329 28.8739 40.5083 28.8842 40.5826 28.875C41.4482 28.7673 42.0927 28.0095 42.5001 26.6078C42.5011 26.6037 42.5021 26.6037 42.5041 26.5996C42.9929 25.2246 42.9186 24.2259 42.2811 23.626C41.8494 23.2199 41.1793 22.9995 40.2894 22.9687C40.2334 22.9667 40.1753 22.9667 40.1173 22.9667C39.4778 22.9667 38.8159 23.0877 38.1887 23.2271C38.1479 24.5099 37.7528 25.7352 37.039 26.7934H37.038Z" fill="#F3A51E"/>
<path d="M40.1173 23.4855C39.38 23.4855 38.6306 23.3368 37.93 23.1769C37.8333 23.1543 37.764 23.0682 37.763 22.9677C37.7549 21.6552 37.3496 20.3991 36.592 19.3368C36.5339 19.2558 36.539 19.144 36.6052 19.0692C37.1215 18.4765 37.6897 17.8654 38.3475 17.4183C39.1723 16.8574 39.9442 16.6154 40.6346 16.7015C41.2353 16.7764 41.7496 17.1004 42.165 17.6664C42.4664 18.0776 42.7169 18.619 42.9084 19.2763C43.1375 19.9213 43.2515 20.5078 43.2475 21.0184C43.2413 21.7219 43.0143 22.2899 42.5723 22.7052C42.0622 23.1841 41.2995 23.4455 40.3036 23.4804C40.2425 23.4825 40.1794 23.4845 40.1173 23.4845V23.4855ZM38.1886 22.7893C38.8169 22.9287 39.4778 23.0456 40.1173 23.0456C40.1753 23.0456 40.2333 23.0477 40.2894 23.0456C41.1793 23.0149 41.8494 22.7954 42.2811 22.3894C42.9186 21.7906 42.9929 20.7908 42.5041 19.4158C42.5031 19.4117 42.5011 19.4086 42.5 19.4034C42.0927 18.0017 41.4482 17.2358 40.5826 17.1291C39.9971 17.0563 39.324 17.2747 38.5878 17.7751C38.043 18.1463 37.5675 18.6242 37.039 19.224C37.7528 20.2822 38.1489 21.5065 38.1886 22.7883V22.7893Z" fill="#F3A51E"/>
<path d="M36.7142 19.3552C36.648 19.3552 36.5828 19.3245 36.5421 19.2681C35.7672 18.2109 34.7071 17.4347 33.475 17.0225C33.3803 16.9907 33.3202 16.8984 33.3294 16.7979C33.4007 16.0135 33.5046 15.1829 33.7754 14.4323C34.1155 13.489 34.5972 12.8389 35.2071 12.4985C35.5136 12.3272 35.8507 12.2411 36.2071 12.2411C36.9117 12.2411 37.6999 12.5764 38.5501 13.2367C39.1122 13.6233 39.546 14.0304 39.8413 14.4457C40.2476 15.0178 40.3953 15.6115 40.2802 16.2104C40.1478 16.8994 39.6814 17.5618 38.8964 18.1791C38.2711 18.6713 37.5186 19.0261 36.7987 19.3378C36.7712 19.3501 36.7427 19.3552 36.7142 19.3552ZM33.7713 16.6697C34.9658 17.1035 36.0014 17.8613 36.7834 18.8754C37.5145 18.5544 38.1143 18.2478 38.6326 17.8397C39.3342 17.2881 39.7466 16.7128 39.8596 16.1283C40.0256 15.267 39.5022 14.4129 38.3037 13.5895C38.3007 13.5874 38.2966 13.5844 38.2935 13.5823C37.5186 12.9783 36.816 12.6728 36.2081 12.6728C35.925 12.6728 35.6582 12.7415 35.4149 12.8768C34.8976 13.165 34.4821 13.7382 34.1776 14.581C33.9526 15.2034 33.8487 15.872 33.7713 16.6708V16.6697Z" fill="#F3A51E"/>
<path d="M38.152 22.7934C38.1112 21.4819 37.6968 20.2637 37.0115 19.2445C36.9311 19.1245 36.8476 19.0076 36.76 18.8938C35.9963 17.9002 34.9627 17.126 33.7713 16.6831C33.6349 16.6328 33.4954 16.5867 33.3538 16.5447C32.7653 16.3693 32.1431 16.274 31.4995 16.2709H31.4639C31.4364 16.2709 31.4079 16.2709 31.3804 16.2719C30.7786 16.2791 30.1962 16.3662 29.6422 16.5252C29.6392 16.5252 29.6361 16.5262 29.633 16.5272H29.632C29.4946 16.5662 29.3591 16.6103 29.2257 16.6585C29.2217 16.6585 29.2176 16.6605 29.2145 16.6626C28.015 17.0943 26.9733 17.8613 26.2004 18.8508C26.1974 18.8549 26.1943 18.859 26.1902 18.8631C26.1047 18.9738 26.0212 19.0886 25.9418 19.2055C25.9387 19.2096 25.9346 19.2148 25.9316 19.2199C25.2402 20.2402 24.8186 21.4614 24.7748 22.778C24.7748 22.7852 24.7738 22.7924 24.7738 22.8006C24.7718 22.8703 24.7708 22.94 24.7708 23.0097C24.7708 23.0795 24.7718 23.1471 24.7738 23.2158C24.7738 23.2251 24.7748 23.2343 24.7748 23.2425C24.8196 24.5581 25.2402 25.7793 25.9316 26.8006C25.9336 26.8037 25.9357 26.8068 25.9387 26.8098C26.0181 26.9277 26.1027 27.0436 26.1902 27.1564C26.1933 27.1605 26.1974 27.1656 26.2004 27.1697C26.9733 28.1592 28.015 28.9262 29.2145 29.3579C29.2176 29.36 29.2217 29.361 29.2257 29.362C29.3591 29.4102 29.4946 29.4543 29.632 29.4933H29.633L29.6422 29.4963C30.1962 29.6543 30.7786 29.7414 31.3804 29.7486C31.4079 29.7496 31.4364 29.7496 31.4639 29.7496H31.4995C32.1431 29.7465 32.7653 29.6512 33.3538 29.4758C33.4954 29.4338 33.6349 29.3877 33.7713 29.3364C34.9637 28.8944 35.9983 28.1193 36.762 27.1236C36.8486 27.0098 36.9321 26.8939 37.0115 26.775C37.6968 25.7557 38.1112 24.5376 38.152 23.2271C38.155 23.1553 38.156 23.0825 38.156 23.0097C38.156 22.9369 38.155 22.8652 38.152 22.7934V22.7934ZM31.4639 29.319C31.4344 29.319 31.4048 29.319 31.3753 29.3179C30.7501 29.3097 30.1473 29.2082 29.5791 29.0277C29.5658 29.0236 29.5536 29.0195 29.5404 29.0144C28.292 28.6084 27.2136 27.8178 26.4438 26.7811C26.4204 26.7493 26.3969 26.7175 26.3756 26.6858C25.6475 25.6686 25.2147 24.4258 25.1994 23.0846C25.1994 23.06 25.1994 23.0343 25.1994 23.0097C25.1994 22.9851 25.1994 22.9615 25.1994 22.9369C25.2137 21.5947 25.6475 20.3519 26.3756 19.3347C26.3969 19.303 26.4204 19.2701 26.4438 19.2394C27.2136 18.2037 28.2909 17.4132 29.5383 17.0061H29.5404C29.5536 17.001 29.5658 16.9969 29.5791 16.9927C30.1116 16.8236 30.6747 16.7241 31.2572 16.7056C31.2959 16.7036 31.3356 16.7026 31.3743 16.7026C31.4038 16.7015 31.4344 16.7015 31.4639 16.7015H31.4995C34.9373 16.721 37.7284 19.5439 37.7284 23.0097C37.7284 26.4756 34.9373 29.2995 31.4995 29.319H31.4639V29.319Z" fill="#F3A51E"/>
<path d="M31.4995 16.7015H31.4639C31.4344 16.7015 31.4038 16.7015 31.3743 16.7026C31.3356 16.7036 31.2959 16.7046 31.2572 16.7056C30.6931 16.7282 30.1381 16.8256 29.6025 16.9958C29.5892 16.9999 29.575 17.003 29.5617 17.0051C29.5495 17.0122 29.5363 17.0174 29.5231 17.0225C28.2909 17.4347 27.2309 18.2109 26.456 19.2681C26.4468 19.2804 26.4377 19.2906 26.4265 19.2999C26.4214 19.3132 26.4142 19.3255 26.4061 19.3368C25.6485 20.3991 25.2432 21.6552 25.2351 22.9677C25.2351 22.982 25.233 22.9964 25.23 23.0108C25.233 23.0241 25.2351 23.0384 25.2351 23.0528C25.2432 24.3653 25.6485 25.6204 26.4061 26.6837C26.4142 26.696 26.4224 26.7083 26.4275 26.7216C26.4377 26.7309 26.4478 26.7411 26.456 26.7524C27.2309 27.8096 28.2909 28.5858 29.5231 28.998C29.5363 29.0031 29.5495 29.0083 29.5617 29.0165C29.575 29.0175 29.5892 29.0206 29.6025 29.0247C30.1747 29.2072 30.7715 29.3056 31.3753 29.3179C31.4048 29.319 31.4344 29.319 31.4639 29.319H31.4995C34.9372 29.2995 37.7284 26.4766 37.7284 23.0097C37.7284 19.5429 34.9372 16.721 31.4995 16.7015ZM31.4639 28.554C28.4274 28.554 25.9581 26.0674 25.9581 23.0097C25.9581 19.952 28.4274 17.4665 31.4639 17.4665C34.5004 17.4665 36.9687 19.953 36.9687 23.0097C36.9687 26.0664 34.4994 28.554 31.4639 28.554Z" fill="#F3A51E"/>
<path d="M31.4639 17.4665C28.4273 17.4665 25.958 19.9531 25.958 23.0097C25.958 26.0664 28.4273 28.554 31.4639 28.554C34.5004 28.554 36.9687 26.0675 36.9687 23.0097C36.9687 19.952 34.4993 17.4665 31.4639 17.4665V17.4665ZM31.4639 28.1234C28.6636 28.1234 26.3857 25.8296 26.3857 23.0097C26.3857 20.1899 28.6636 17.8972 31.4639 17.8972C34.2641 17.8972 36.541 20.191 36.541 23.0097C36.541 25.8285 34.2631 28.1234 31.4639 28.1234Z" fill="#F3A51E"/>
<path d="M31.4567 21.7711C31.3559 21.7711 31.2572 21.7208 30.9944 21.446C30.8763 21.3219 30.7877 21.1876 30.7012 21.0564L30.689 21.0379C30.3723 20.557 30.3214 19.8587 30.5637 19.2999C30.7164 18.9461 30.9904 18.6447 31.3559 18.4273C31.4231 18.3873 31.5066 18.3873 31.5738 18.4273C32.1308 18.7595 32.4821 19.3317 32.5127 19.9572C32.5198 20.0987 32.5096 20.2422 32.4832 20.3817C32.3834 20.9067 32.0137 21.4696 31.6044 21.7208C31.5922 21.729 31.5799 21.7362 31.5667 21.7424C31.5331 21.7608 31.4954 21.77 31.4557 21.77L31.4567 21.7711ZM31.4639 18.8692C31.2317 19.0312 31.0576 19.2384 30.9557 19.4721C30.7694 19.9028 30.805 20.436 31.0454 20.8L31.0576 20.8185C31.137 20.9384 31.2113 21.0523 31.3009 21.1456C31.3692 21.2163 31.4211 21.2666 31.4588 21.3004C31.7368 21.0882 31.9934 20.6698 32.0626 20.3017C32.083 20.195 32.0901 20.0863 32.085 19.9787C32.0636 19.5388 31.8335 19.1327 31.4639 18.8692V18.8692Z" fill="#F3A51E"/>
<path d="M30.5353 22.0643C30.4304 22.0643 30.2797 22.0407 30.1707 22.0212C30.0037 21.9915 29.852 21.9351 29.7064 21.8797L29.686 21.8715C29.1494 21.6706 28.7003 21.1353 28.57 20.5395C28.4875 20.1632 28.5333 19.7572 28.7014 19.3655C28.7319 19.2937 28.8001 19.2435 28.8775 19.2363C28.9386 19.2301 29.0018 19.2271 29.0629 19.2271C29.6443 19.2271 30.1789 19.4793 30.5302 19.9182C30.6188 20.0289 30.6941 20.1499 30.7542 20.2791C30.9803 20.7621 31.0098 21.4368 30.8245 21.8828C30.8184 21.8982 30.8133 21.9105 30.8072 21.9228C30.7634 22.0171 30.6717 22.0643 30.5353 22.0643V22.0643ZM29.0466 19.6587C28.9539 19.9274 28.9335 20.1981 28.9875 20.4473C29.0883 20.9056 29.4284 21.3158 29.8347 21.4686L29.8551 21.4768C29.9885 21.527 30.1158 21.5742 30.242 21.5967C30.3428 21.6152 30.4131 21.6244 30.4599 21.6285C30.5607 21.2912 30.5241 20.802 30.3662 20.4626C30.3204 20.3642 30.2634 20.2719 30.1962 20.1878C29.9233 19.8474 29.5038 19.6526 29.0466 19.6577V19.6587Z" fill="#F3A51E"/>
<path d="M28.9283 23.1994C28.4813 23.1994 28.0149 23.022 27.6809 22.7236C27.3948 22.4683 27.1942 22.1125 27.1015 21.6952C27.0842 21.6183 27.1107 21.5383 27.1688 21.486C27.5241 21.1702 27.9742 20.9969 28.4345 20.9969C28.5933 20.9969 28.7512 21.0184 28.9039 21.0594C29.0404 21.0964 29.1717 21.1507 29.2959 21.2194C29.7603 21.4768 30.1788 22.0048 30.2888 22.4745C30.2918 22.4878 30.2949 22.5022 30.2979 22.5165C30.3356 22.7154 30.1411 22.8272 29.8407 22.9738C29.687 23.0487 29.5322 23.0928 29.3825 23.1348L29.3611 23.141C29.2236 23.1799 29.078 23.1994 28.9283 23.1994V23.1994ZM27.5526 21.729C27.6341 22.0018 27.7756 22.2325 27.965 22.4017C28.2227 22.6314 28.5821 22.7688 28.9283 22.7688C29.0393 22.7688 29.1463 22.7544 29.246 22.7267L29.2674 22.7206C29.4049 22.6816 29.5352 22.6457 29.6513 22.5883C29.7399 22.5452 29.803 22.5104 29.8458 22.4858C29.7318 22.1546 29.4161 21.7793 29.0892 21.5988C28.9945 21.5465 28.8947 21.5055 28.7919 21.4778C28.6758 21.446 28.5556 21.4306 28.4345 21.4306C28.1198 21.4306 27.8103 21.5362 27.5516 21.73L27.5526 21.729Z" fill="#F3A51E"/>
<path d="M28.407 25.0256C28.35 25.0256 28.2919 25.0226 28.2369 25.0174C27.8561 24.9805 27.4865 24.8113 27.1678 24.5283C27.1087 24.476 27.0832 24.396 27.1005 24.3191C27.2421 23.6834 27.6738 23.1697 28.2553 22.9472C28.3866 22.8969 28.5251 22.8621 28.6656 22.8446C28.7369 22.8354 28.8133 22.8313 28.8907 22.8313C29.3774 22.8313 29.8917 23.0046 30.2012 23.2732C30.2114 23.2825 30.2226 23.2917 30.2328 23.302C30.3794 23.4414 30.2867 23.6465 30.1299 23.9428C30.0495 24.0936 29.9497 24.2207 29.853 24.3437L29.8397 24.3612C29.5169 24.7713 28.9681 25.0267 28.407 25.0267V25.0256ZM27.5516 24.2884C27.7767 24.4606 28.0251 24.5632 28.2777 24.5888C28.3194 24.5929 28.3632 24.595 28.407 24.595C28.8337 24.595 29.2644 24.3981 29.5037 24.0925L29.5169 24.0751C29.6055 23.9623 29.69 23.8557 29.7501 23.7408C29.7959 23.6537 29.8275 23.588 29.8479 23.5419C29.6065 23.3717 29.2359 23.262 28.8897 23.262C28.8296 23.262 28.7715 23.265 28.7186 23.2722C28.6117 23.2855 28.5068 23.3122 28.407 23.3501C27.9987 23.507 27.6861 23.8516 27.5506 24.2874L27.5516 24.2884Z" fill="#F3A51E"/>
<path d="M29.0802 26.7914C29.0119 26.7914 28.9437 26.7883 28.8755 26.7811C28.7981 26.7739 28.7299 26.7247 28.6993 26.6519C28.4427 26.0531 28.4926 25.3835 28.8327 24.8585C28.9101 24.7396 29.0018 24.6298 29.1046 24.5324C29.4579 24.1982 30.0261 23.9654 30.4874 23.9654C30.5251 23.9654 30.5618 23.9664 30.5974 23.9695C30.6117 23.9705 30.6259 23.9715 30.6402 23.9736C30.8398 23.9992 30.8846 24.2197 30.9304 24.5529C30.9538 24.7221 30.9467 24.8841 30.9406 25.041V25.0636C30.9151 25.6399 30.5485 26.2346 30.0261 26.5442C29.7532 26.7063 29.4264 26.7914 29.0812 26.7914H29.0802ZM29.0445 26.3597C29.0567 26.3597 29.0679 26.3597 29.0791 26.3597C29.348 26.3597 29.5995 26.2951 29.8072 26.172C30.2094 25.9341 30.4915 25.4809 30.5098 25.0451V25.0226C30.517 24.879 30.5221 24.7437 30.5047 24.6145C30.4915 24.516 30.4783 24.4453 30.4681 24.3961C30.1158 24.4022 29.6677 24.5899 29.3969 24.8462C29.3184 24.92 29.2492 25.0041 29.1901 25.0943C28.9508 25.4625 28.8999 25.927 29.0445 26.3597V26.3597Z" fill="#F3A51E"/>
<path d="M31.4609 27.623C31.4232 27.623 31.3856 27.6127 31.352 27.5932C30.795 27.261 30.4436 26.6889 30.4131 26.0634C30.406 25.9219 30.4162 25.7783 30.4426 25.6389C30.5424 25.1139 30.9121 24.5509 31.3214 24.2997C31.3346 24.2915 31.3458 24.2843 31.3581 24.2782C31.3917 24.2597 31.4304 24.2495 31.4691 24.2495C31.5699 24.2495 31.6686 24.2997 31.9314 24.5745C32.0495 24.6986 32.1391 24.8339 32.2246 24.9641L32.2358 24.9816C32.5525 25.4625 32.6034 26.1608 32.3611 26.7196C32.2083 27.0734 31.9344 27.3748 31.5688 27.5922C31.5352 27.6127 31.4976 27.622 31.4599 27.622L31.4609 27.623ZM31.467 24.7201C31.189 24.9324 30.9324 25.3507 30.8632 25.7188C30.8428 25.8255 30.8357 25.9342 30.8408 26.0418C30.8622 26.4817 31.0923 26.8878 31.4619 27.1513C31.6941 26.9893 31.8682 26.7822 31.97 26.5484C32.1564 26.1177 32.1208 25.5845 31.8804 25.2205L31.8682 25.2031C31.7888 25.0831 31.7145 24.9693 31.6249 24.876C31.5566 24.8052 31.5047 24.755 31.467 24.7211V24.7201Z" fill="#F3A51E"/>
<path d="M33.863 26.7924C33.2816 26.7924 32.747 26.5401 32.3957 26.1013C32.3071 25.9905 32.2317 25.8695 32.1716 25.7403C31.9456 25.2574 31.9161 24.5827 32.1014 24.1366C32.1075 24.1213 32.1126 24.1089 32.1187 24.0966C32.1625 24.0023 32.2541 23.9551 32.3906 23.9551C32.4944 23.9551 32.6462 23.9787 32.7551 23.9982C32.9221 24.0279 33.0728 24.0843 33.2184 24.1397L33.2398 24.1479C33.7765 24.3489 34.2255 24.8841 34.3559 25.4799C34.4383 25.8562 34.3925 26.2623 34.2245 26.654C34.194 26.7257 34.1257 26.776 34.0483 26.7832C33.9872 26.7893 33.9241 26.7924 33.863 26.7924V26.7924ZM32.4649 24.392C32.3641 24.7293 32.4008 25.2184 32.5586 25.5578C32.6044 25.6563 32.6614 25.7485 32.7286 25.8326C32.9975 26.169 33.4109 26.3628 33.862 26.3628C33.8671 26.3628 33.8732 26.3628 33.8783 26.3628C33.9709 26.0941 33.9913 25.8234 33.9373 25.5742C33.8365 25.1159 33.4964 24.7057 33.0901 24.5529L33.0688 24.5447C32.9354 24.4945 32.8091 24.4473 32.6818 24.4248C32.581 24.4063 32.5107 24.3971 32.4639 24.393L32.4649 24.392Z" fill="#F3A51E"/>
<path d="M34.4913 25.0216C34.3324 25.0216 34.1746 25 34.0218 24.959C33.8854 24.9221 33.754 24.8678 33.6298 24.7991C33.1655 24.5417 32.747 24.0136 32.637 23.544C32.6339 23.5307 32.6309 23.5163 32.6278 23.502C32.5901 23.302 32.7846 23.1913 33.086 23.0446C33.2388 22.9698 33.3936 22.9267 33.5433 22.8847L33.5646 22.8785C33.7021 22.8395 33.8477 22.8201 33.9974 22.8201C34.4444 22.8201 34.9108 22.9975 35.2448 23.2958C35.5309 23.5512 35.7315 23.907 35.8242 24.3243C35.8415 24.4012 35.815 24.4812 35.757 24.5335C35.4016 24.8493 34.9515 25.0226 34.4913 25.0226V25.0216ZM33.0799 23.5348C33.194 23.866 33.5097 24.2413 33.8365 24.4217C33.9312 24.474 34.031 24.515 34.1339 24.5427C34.2499 24.5745 34.3701 24.5899 34.4913 24.5899C34.8059 24.5899 35.1155 24.4843 35.3741 24.2905C35.2927 24.0177 35.1511 23.787 34.9617 23.6178C34.7041 23.3881 34.3446 23.2507 33.9984 23.2507C33.8874 23.2507 33.7805 23.2651 33.6807 23.2928L33.6593 23.2989C33.5219 23.3379 33.3915 23.3738 33.2754 23.4312C33.1869 23.4743 33.1237 23.5091 33.081 23.5348H33.0799Z" fill="#F3A51E"/>
<path d="M34.035 23.1892C33.5483 23.1892 33.034 23.0159 32.7245 22.7473C32.7143 22.738 32.7031 22.7288 32.6929 22.7185C32.5463 22.5791 32.639 22.374 32.7958 22.0777C32.8762 21.9269 32.976 21.7998 33.0727 21.6767L33.086 21.6593C33.4088 21.2492 33.9576 20.9938 34.5187 20.9938C34.5757 20.9938 34.6338 20.9969 34.6898 21.002C35.0706 21.039 35.4402 21.2081 35.759 21.4911C35.818 21.5434 35.8435 21.6234 35.8262 21.7003C35.6846 22.3361 35.2529 22.8498 34.6714 23.0723C34.5401 23.1225 34.4016 23.1574 34.2611 23.1748C34.1898 23.1841 34.1134 23.1882 34.036 23.1882L34.035 23.1892ZM33.0768 22.4776C33.3171 22.6478 33.6888 22.7575 34.035 22.7575C34.0951 22.7575 34.1531 22.7544 34.2071 22.7473C34.314 22.7339 34.4189 22.7073 34.5187 22.6693C34.927 22.5124 35.2396 22.1679 35.3741 21.7321C35.149 21.5599 34.9006 21.4573 34.648 21.4317C34.6063 21.4276 34.5625 21.4255 34.5187 21.4255C34.092 21.4255 33.6623 21.6224 33.422 21.928L33.4088 21.9454C33.3202 22.0582 33.2357 22.1648 33.1746 22.2797C33.1277 22.3668 33.0972 22.4325 33.0768 22.4786V22.4776Z" fill="#F3A51E"/>
<path d="M32.4405 22.0551C32.4028 22.0551 32.3661 22.0541 32.3305 22.051C32.3152 22.05 32.301 22.0489 32.2877 22.0469C32.0881 22.0213 32.0433 21.8008 31.9975 21.4676C31.9741 21.2973 31.9812 21.1353 31.9873 20.9784V20.9569C32.0118 20.3806 32.3794 19.7859 32.9017 19.4762C33.1746 19.3142 33.5015 19.2291 33.8467 19.2291C33.9149 19.2291 33.9832 19.2322 34.0524 19.2394C34.1298 19.2466 34.198 19.2958 34.2286 19.3686C34.4852 19.9674 34.4353 20.637 34.0952 21.162C34.0178 21.2809 33.9261 21.3906 33.8233 21.4881C33.47 21.8223 32.9007 22.0551 32.4405 22.0551V22.0551ZM33.8467 19.6598C33.5779 19.6598 33.3264 19.7244 33.1186 19.8474C32.7164 20.0853 32.4344 20.5385 32.416 20.9743V20.9959C32.4089 21.1394 32.4038 21.2758 32.4211 21.405C32.4344 21.5034 32.4476 21.5742 32.4578 21.6234C32.8101 21.6173 33.2581 21.4296 33.529 21.1733C33.6074 21.0994 33.6767 21.0154 33.7357 20.9251C33.975 20.557 34.0259 20.0925 33.8813 19.6598C33.8691 19.6598 33.8579 19.6598 33.8467 19.6598V19.6598Z" fill="#F3A51E"/>
</g>
<path d="M72.8555 33V32.4727L74.6602 32.3555V16.9219L72.8555 16.8047V16.2773H79.1016C79.9688 16.2773 80.75 16.3516 81.4453 16.5C82.1484 16.6484 82.7734 16.8828 83.3203 17.2031C83.875 17.5234 84.3008 17.957 84.5977 18.5039C84.9023 19.043 85.0547 19.6836 85.0547 20.4258C85.0547 21.7617 84.6055 22.8047 83.707 23.5547C82.8086 24.2969 81.5938 24.7773 80.0625 24.9961V25.0195C80.7188 25.0273 81.2852 25.1328 81.7617 25.3359C82.2461 25.5391 82.6289 25.8008 82.9102 26.1211C83.1992 26.4336 83.4727 26.8398 83.7305 27.3398C83.9023 27.6836 84.1445 28.2109 84.457 28.9219C84.7773 29.625 85.0938 30.25 85.4062 30.7969C85.6562 31.2422 85.918 31.5859 86.1914 31.8281C86.4648 32.0703 86.6953 32.2188 86.8828 32.2734C87.0703 32.3281 87.2852 32.3555 87.5273 32.3555V33H85.582C84.9883 33 84.5195 32.9648 84.1758 32.8945C83.832 32.8164 83.4883 32.6367 83.1445 32.3555C82.8086 32.0742 82.5078 31.6875 82.2422 31.1953C81.9766 30.6953 81.5234 29.6562 80.8828 28.0781C80.7891 27.8438 80.6523 27.543 80.4727 27.1758C80.3008 26.8008 80.1484 26.5195 80.0156 26.332C79.8906 26.1367 79.7383 25.9336 79.5586 25.7227C79.3867 25.5117 79.207 25.3633 79.0195 25.2773C78.8398 25.1836 78.6484 25.1367 78.4453 25.1367C78.1016 25.1367 77.8398 25.1406 77.6602 25.1484V32.3555L79.4648 32.4727V33H72.8555ZM77.6602 24.4805C77.7461 24.4883 77.9062 24.4922 78.1406 24.4922C79.5312 24.4922 80.5078 24.1562 81.0703 23.4844C81.6406 22.8047 81.9258 21.793 81.9258 20.4492C81.9258 19.7773 81.8438 19.207 81.6797 18.7383C81.5234 18.2695 81.2969 17.9062 81 17.6484C80.7031 17.3906 80.375 17.207 80.0156 17.0977C79.6562 16.9883 79.2461 16.9336 78.7852 16.9336C78.4805 16.9336 78.1055 16.9648 77.6602 17.0273V24.4805ZM87.8906 27.1875C87.8906 26.0078 88.1172 24.9375 88.5703 23.9766C89.0312 23.0156 89.6719 22.2617 90.4922 21.7148C91.3203 21.1602 92.2539 20.8828 93.293 20.8828C94.1523 20.8828 94.9258 21.0625 95.6133 21.4219C96.3086 21.7734 96.8633 22.2461 97.2773 22.8398C97.6992 23.4336 98.0195 24.0977 98.2383 24.832C98.4648 25.5586 98.5781 26.3203 98.5781 27.1172C98.5781 28.2656 98.3594 29.3125 97.9219 30.2578C97.4844 31.2031 96.8555 31.957 96.0352 32.5195C95.2227 33.0742 94.3008 33.3516 93.2695 33.3516C92.3555 33.3516 91.5469 33.1914 90.8438 32.8711C90.1484 32.543 89.5859 32.0938 89.1562 31.5234C88.7344 30.9453 88.418 30.293 88.207 29.5664C87.9961 28.8398 87.8906 28.0469 87.8906 27.1875ZM90.8906 27.0469C90.8906 27.9141 90.9336 28.6914 91.0195 29.3789C91.1055 30.0586 91.2383 30.6641 91.418 31.1953C91.5977 31.7188 91.8398 32.1211 92.1445 32.4023C92.4492 32.6836 92.8086 32.8242 93.2227 32.8242C94.793 32.8242 95.5781 30.9453 95.5781 27.1875C95.5781 26.2422 95.5391 25.4297 95.4609 24.75C95.3906 24.0703 95.2656 23.4727 95.0859 22.957C94.9141 22.4336 94.6719 22.0469 94.3594 21.7969C94.0469 21.5391 93.668 21.4102 93.2227 21.4102C92.8086 21.4102 92.4492 21.5508 92.1445 21.832C91.8398 22.1133 91.5977 22.5117 91.418 23.0273C91.2383 23.543 91.1055 24.1328 91.0195 24.7969C90.9336 25.4609 90.8906 26.2109 90.8906 27.0469ZM100.02 33V32.4727L101.824 32.3555V16.9219L100.02 16.8047V16.2773H111.094L111.211 21.0469H110.555C110.5 20.3906 110.406 19.832 110.273 19.3711C110.141 18.9023 109.938 18.4766 109.664 18.0938C109.398 17.7031 109.031 17.4102 108.562 17.2148C108.094 17.0195 107.523 16.9219 106.852 16.9219C105.953 16.9219 105.277 16.9609 104.824 17.0391V24.2578C105.02 24.2656 105.133 24.2695 105.164 24.2695C105.719 24.2695 106.156 24.2422 106.477 24.1875C106.797 24.125 107.086 24 107.344 23.8125C107.602 23.6172 107.781 23.332 107.883 22.957C107.984 22.582 108.035 22.082 108.035 21.457H108.68V27.75H108.035C108.035 26.6797 107.859 25.9375 107.508 25.5234C107.156 25.1094 106.57 24.9023 105.75 24.9023L104.824 24.9141V32.3555L107.098 32.4727V33H100.02ZM112.301 17.2031V16.7227L114.75 16.4648L116.402 16.0312L116.613 16.3711V32.4023L117.82 32.5195V33H112.535V32.5195L113.742 32.4023V17.2031H112.301ZM119.461 27.1875C119.461 26.0078 119.688 24.9375 120.141 23.9766C120.602 23.0156 121.242 22.2617 122.062 21.7148C122.891 21.1602 123.824 20.8828 124.863 20.8828C125.723 20.8828 126.496 21.0625 127.184 21.4219C127.879 21.7734 128.434 22.2461 128.848 22.8398C129.27 23.4336 129.59 24.0977 129.809 24.832C130.035 25.5586 130.148 26.3203 130.148 27.1172C130.148 28.2656 129.93 29.3125 129.492 30.2578C129.055 31.2031 128.426 31.957 127.605 32.5195C126.793 33.0742 125.871 33.3516 124.84 33.3516C123.926 33.3516 123.117 33.1914 122.414 32.8711C121.719 32.543 121.156 32.0938 120.727 31.5234C120.305 30.9453 119.988 30.293 119.777 29.5664C119.566 28.8398 119.461 28.0469 119.461 27.1875ZM122.461 27.0469C122.461 27.9141 122.504 28.6914 122.59 29.3789C122.676 30.0586 122.809 30.6641 122.988 31.1953C123.168 31.7188 123.41 32.1211 123.715 32.4023C124.02 32.6836 124.379 32.8242 124.793 32.8242C126.363 32.8242 127.148 30.9453 127.148 27.1875C127.148 26.2422 127.109 25.4297 127.031 24.75C126.961 24.0703 126.836 23.4727 126.656 22.957C126.484 22.4336 126.242 22.0469 125.93 21.7969C125.617 21.5391 125.238 21.4102 124.793 21.4102C124.379 21.4102 124.02 21.5508 123.715 21.832C123.41 22.1133 123.168 22.5117 122.988 23.0273C122.809 23.543 122.676 24.1328 122.59 24.7969C122.504 25.4609 122.461 26.2109 122.461 27.0469ZM137.297 21.7148V21.2344H142.535V21.7148L141.258 21.8438L143.742 29.2617H143.789L146.309 21.8438L144.961 21.7148V21.2344H148.195V21.7148L146.977 21.8438L143.121 33.1172H142.594L139.512 24.9141L136.676 33.1172H136.137L131.789 21.8438L130.641 21.7148V21.2344H136.09V21.7148L134.918 21.8438L137.32 29.1562H137.367L139.184 24.0469L138.352 21.8438L137.297 21.7148ZM148.723 27.1172C148.723 26.5078 148.781 25.9141 148.898 25.3359C149.016 24.75 149.207 24.1875 149.473 23.6484C149.738 23.1094 150.062 22.6367 150.445 22.2305C150.828 21.8242 151.301 21.5 151.863 21.2578C152.434 21.0078 153.062 20.8828 153.75 20.8828C154.398 20.8828 154.98 20.9766 155.496 21.1641C156.012 21.3438 156.441 21.5977 156.785 21.9258C157.129 22.2539 157.414 22.6562 157.641 23.1328C157.867 23.6016 158.027 24.1133 158.121 24.668C158.223 25.2148 158.273 25.8164 158.273 26.4727L157.957 26.7656H151.723V27.4805C151.723 30.8867 152.691 32.5898 154.629 32.5898C156.004 32.5898 157.102 31.9023 157.922 30.5273L158.379 30.8086C157.371 32.5039 155.938 33.3516 154.078 33.3516C152.281 33.3516 150.938 32.7969 150.047 31.6875C149.164 30.5781 148.723 29.0547 148.723 27.1172ZM151.723 26.2383L155.508 26.0859C155.531 25.6875 155.543 25.3047 155.543 24.9375C155.543 23.8047 155.406 22.9336 155.133 22.3242C154.867 21.7148 154.422 21.4102 153.797 21.4102C153.422 21.4102 153.098 21.5352 152.824 21.7852C152.559 22.0273 152.352 22.3789 152.203 22.8398C152.055 23.3008 151.941 23.8047 151.863 24.3516C151.793 24.8906 151.746 25.5195 151.723 26.2383ZM159.949 22.1719V21.6914L162.398 21.4336L164.051 21L164.215 21.3398V23.3555H164.262C164.418 23.043 164.609 22.7383 164.836 22.4414C165.062 22.1445 165.309 21.8828 165.574 21.6562C165.848 21.4219 166.137 21.2344 166.441 21.0938C166.746 20.9531 167.055 20.8828 167.367 20.8828C167.977 20.8828 168.445 21.0469 168.773 21.375C169.109 21.6953 169.277 22.125 169.277 22.6641C169.277 22.8906 169.242 23.1016 169.172 23.2969C169.102 23.4844 169 23.6484 168.867 23.7891C168.742 23.9297 168.586 24.043 168.398 24.1289C168.219 24.207 168.02 24.2461 167.801 24.2461C167.566 24.2461 167.355 24.207 167.168 24.1289C166.98 24.0508 166.82 23.9453 166.688 23.8125C166.562 23.6797 166.465 23.5273 166.395 23.3555C166.324 23.1758 166.289 22.9844 166.289 22.7812C166.289 22.3672 166.375 22.0625 166.547 21.8672V21.7969C166.266 21.8594 165.988 22.0078 165.715 22.2422C165.449 22.4766 165.207 22.7969 164.988 23.2031C164.77 23.6016 164.594 24.0859 164.461 24.6562C164.328 25.2188 164.262 25.8555 164.262 26.5664V32.4023L165.469 32.5195V33H160.184V32.5195L161.391 32.4023V22.1719H159.949ZM174.82 33V32.4727L176.238 32.3555L181.781 15.7969H182.309L188.039 32.3555L189.586 32.4727V33H183.316V32.4727L184.898 32.3555L183.516 28.1484H178.266L176.906 32.3555L178.488 32.4727V33H174.82ZM178.477 27.4453L183.258 27.3516L180.914 20.1562H180.867L178.477 27.4453ZM190.254 33V32.4727L192.059 32.3555V16.9219L190.254 16.8047V16.2773H196.617C197.477 16.2773 198.27 16.3711 198.996 16.5586C199.73 16.7383 200.391 17.0156 200.977 17.3906C201.562 17.7578 202.02 18.2539 202.348 18.8789C202.684 19.4961 202.852 20.2109 202.852 21.0234C202.852 21.7734 202.723 22.4492 202.465 23.0508C202.215 23.6523 201.875 24.1562 201.445 24.5625C201.016 24.9688 200.496 25.3086 199.887 25.582C199.285 25.8477 198.645 26.043 197.965 26.168C197.293 26.2852 196.578 26.3438 195.82 26.3438C195.656 26.3438 195.402 26.3359 195.059 26.3203V32.3555L196.863 32.4727V33H190.254ZM195.059 25.6523C195.332 25.6758 195.609 25.6875 195.891 25.6875C198.453 25.6875 199.734 24.125 199.734 21C199.734 20.2422 199.648 19.5977 199.477 19.0664C199.305 18.5273 199.055 18.1133 198.727 17.8242C198.406 17.5273 198.047 17.3164 197.648 17.1914C197.258 17.0586 196.809 16.9922 196.301 16.9922C195.918 16.9922 195.504 17.0234 195.059 17.0859V25.6523ZM204.27 33V32.4727L206.074 32.3555V16.9219L204.27 16.8047V16.2773H210.879V16.8047L209.074 16.9219V32.3555L210.879 32.4727V33H204.27Z" fill="#1884F4"/>
<defs>
<clipPath id="clip0_11_5671">
<rect width="63" height="46" fill="white"/>
</clipPath>
</defs>
</svg>
